<?xml version="1.0" encoding="UTF-8" standalone="no"?>
<svg
   xmlns:dc="http://purl.org/dc/elements/1.1/"
   xmlns:cc="http://creativecommons.org/ns#"
   xmlns:rdf="http://www.w3.org/1999/02/22-rdf-syntax-ns#"
   xmlns:svg="http://www.w3.org/2000/svg"
   xmlns="http://www.w3.org/2000/svg"
   xmlns:sodipodi="http://sodipodi.sourceforge.net/DTD/sodipodi-0.dtd"
   xmlns:inkscape="http://www.inkscape.org/namespaces/inkscape"
   xml:space="preserve"
   height="1052.5"
   width="1488.75"
   version="1.1"
   id="svg2"
   inkscape:version="0.48.4 r9939"
   sodipodi:docname="reference-housenumbers.svg"><metadata
     id="metadata3199"><rdf:RDF><cc:Work
         rdf:about=""><dc:format>image/svg+xml</dc:format><dc:type
           rdf:resource="http://purl.org/dc/dcmitype/StillImage" /><dc:title /></cc:Work></rdf:RDF></metadata><defs
     id="defs3197" /><sodipodi:namedview
     pagecolor="#ffffff"
     bordercolor="#666666"
     borderopacity="1"
     objecttolerance="10"
     gridtolerance="10"
     guidetolerance="10"
     inkscape:pageopacity="0"
     inkscape:pageshadow="2"
     inkscape:window-width="1916"
     inkscape:window-height="1161"
     id="namedview3195"
     showgrid="false"
     inkscape:zoom="16"
     inkscape:cx="203.6418"
     inkscape:cy="1005.1616"
     inkscape:window-x="0"
     inkscape:window-y="18"
     inkscape:window-maximized="0"
     inkscape:current-layer="svg2"
     showguides="true"
     inkscape:guide-bbox="true" /><!--<g transform='matrix(1,0,0,-1,0,0)'>--><path
     id="path0001"
     style="fill:#000000;fill-opacity:1;fill-rule:nonzero;stroke:none"
     d="m 60.546271,49.244385 4.608482,-0.01702 -0.0049,-0.851455 -3.626653,0.01374 -0.0088,-2.153909 3.476321,-0.01405 -0.0029,-0.821518 -3.476965,0.0041 1.63e-4,-2.635488 3.696508,-0.01825 -0.003,-0.821518 -4.688961,0.01219 0.0307,7.303202 z"
     inkscape:connector-curvature="0"><title
       id="title3091">E</title></path><path
     id="path0002"
     style="fill:#000000;fill-opacity:1;fill-rule:nonzero;stroke:none"
     d="m 67.103407,49.459018 4.605547,-0.01537 -0.0028,-0.837372 -3.626072,0.0099 -0.0089,-2.157434 3.469874,-0.0085 0.0037,-0.829751 -3.469874,0.0085 -0.01215,-2.640123 3.704171,-0.01069 0.0037,-0.829751 -4.69012,0.0085 0.02293,7.302053 z"
     inkscape:connector-curvature="0"><title
       id="title3094">E</title></path><path
     id="path0003"
     style="fill:#000000;fill-opacity:1;fill-rule:nonzero;stroke:none"
     d="m 86.998706,49.307949 0.994031,-9.89e-4 -0.0068,-3.004123 3.576137,-0.0068 0.0068,3.004123 0.980046,-0.0031 -0.0066,-7.294227 -0.980046,0.0031 0.0015,3.468097 -3.58208,-0.0013 -0.0015,-3.468097 -0.988089,0.009 0.0066,7.294227 z"
     inkscape:connector-curvature="0"><title
       id="title3097">H</title></path><path
     id="path0004"
     style="fill:#000000;fill-opacity:1;fill-rule:nonzero;stroke:none"
     d="m 166.08834,46.197608 c 0,0 0.31001,-0.112672 0.61591,-0.463845 0,0 0.30031,-0.359464 0.59092,-0.965718 l 1.00117,-2.00254 -1.07336,4.44e-4 -0.91308,1.882785 c 0,0 -0.35093,0.731401 -0.69909,0.966322 0,0 -0.34256,0.24321 -0.91944,0.24643 l -1.07336,4.44e-4 -0.0144,-3.078554 -0.98736,0.0027 0.0241,7.294287 2.22711,-0.0069 c 0,0 1.24804,-0.0097 1.86086,-0.531813 0,0 0.61281,-0.522073 0.61796,-1.587142 0,0 -0.004,-0.685044 -0.33363,-1.138065 0,0 -0.31592,-0.450324 -0.92427,-0.618889 z m -2.4624,3.072963 -0.006,-2.60155 1.23146,0.0015 c 0,0 0.7211,-0.004 1.08346,0.318458 0,0 0.36796,0.330771 0.37427,0.965878 0,0 0.004,0.648989 -0.36899,0.9728 0,0 -0.35874,0.326507 -1.07984,0.330531 l -1.23416,0.01243 z"
     inkscape:connector-curvature="0"><title
       id="title3100">R</title></path><path
     id="path0005"
     style="fill:#000000;fill-opacity:1;fill-rule:nonzero;stroke:none"
     d="m 70.924427,38.890941 4.683598,0.0029 8.1e-4,-0.422965 -2.642598,-6.877446 -1.027029,-0.0035 2.480992,6.465034 -3.494123,-0.01001 -0.0017,0.845929 z"
     inkscape:connector-curvature="0"><title
       id="title3103">7</title></path><path
     id="path0006"
     style="fill:#000000;fill-opacity:1;fill-rule:nonzero;stroke:none"
     d="m 178.01024,50.133553 6.18,0 0,-0.84 -2.6,0 0,-6.45 -0.98,0 0,6.45 -2.6,0 0,0.84 z"
     inkscape:connector-curvature="0"><title
       id="title3106">T</title></path><path
     id="path0007"
     style="fill:#000000;fill-opacity:1;fill-rule:nonzero;stroke:none"
     d="m 122.50634,50.369959 1.47273,-0.0079 1.8459,-4.966774 1.88446,4.956825 1.46996,0.006 -0.009,-7.299858 -0.9735,-2.98e-4 0.0147,6.406792 -1.88445,-4.992881 -1.00123,-0.0059 -1.86811,5.005596 -0.0147,-6.406792 -0.94576,0.0053 0.009,7.299858 z"
     inkscape:connector-curvature="0"><title
       id="title3109">M</title></path><path
     id="path0008"
     style="fill:#000000;fill-opacity:1;fill-rule:nonzero;stroke:none"
     d="m 73.592841,49.304426 4.185783,-0.0051 0.0048,-0.841473 -3.204512,0.0023 -0.0052,-2.142819 2.893885,-0.0056 -0.0042,-0.820965 -2.884437,-0.0049 -0.0074,-3.484644 -0.991256,0.0033 0.01256,7.299887 z"
     inkscape:connector-curvature="0"><title
       id="title3112">F</title></path><path
     id="path0009"
     style="fill:#000000;fill-opacity:1;fill-rule:nonzero;stroke:none"
     d="m 130.4763,50.309394 1.33003,0.0038 3.23334,-6.106883 -0.001,6.116314 0.95209,-0.0042 0.003,-7.296355 -1.33003,-0.0038 -3.2312,6.092905 -0.003,-6.088357 -0.95801,-0.0039 0.005,7.290438 z"
     inkscape:connector-curvature="0"><title
       id="title3115">N</title></path><path
     id="path00010"
     style="fill:#000000;fill-opacity:1;fill-rule:nonzero;stroke:none"
     d="m 32.883566,32.811339 1.62,0 0,5.57 -1.76,-0.35 0,0.89 1.75,0.36 0.98,0 0,-6.47 1.61,0 0,-0.830001 -4.2,0 0,0.830001 z"
     inkscape:connector-curvature="0"><title
       id="title3118">1</title></path><path
     id="path00011"
     style="fill:#000000;fill-opacity:1;fill-rule:nonzero;stroke:none"
     d="m 106.25246,50.538655 0.97908,3.02e-4 0.0107,-3.100966 3.25669,3.107487 1.28141,5.99e-4 -3.61694,-3.406858 3.89005,-3.884384 -1.30091,-0.01153 -3.51029,3.517932 0.0127,-3.525342 -0.98736,0.0053 -0.0151,7.29745 z"
     inkscape:connector-curvature="0"><title
       id="title3121">K</title></path><path
     id="path00012"
     style="fill:#000000;fill-opacity:1;fill-rule:nonzero;stroke:none"
     d="m 94.285131,49.453911 0.984733,9.5e-5 -0.01168,-7.297915 -0.979048,0.0081 0.006,7.289689 z"
     inkscape:connector-curvature="0"><title
       id="title3124">I</title></path><path
     id="path00013"
     style="fill:#000000;fill-opacity:1;fill-rule:nonzero;stroke:none"
     d="m 35.340099,58.26985 0.900882,0.0033 0.0028,-5.466187 -0.91087,-0.0038 0.0072,5.466668 z m -0.002,2.122356 0.910871,0.0038 -0.0051,-1.141566 -0.901363,0.0067 -0.0044,1.131097 z"
     inkscape:connector-curvature="0"><title
       id="title3127">i</title></path><path
     id="path00014"
     style="fill:#000000;fill-opacity:1;fill-rule:nonzero;stroke:none"
     d="m 85.058154,31.822295 -2.24e-4,0.88955 c 0,0 0.368541,-0.167864 0.756512,-0.262091 0,0 0.378077,-0.09569 0.741519,-0.09246 0,0 0.980046,0.0035 1.498579,0.666527 0,0 0.510107,0.651684 0.574096,1.995523 0,0 -0.282179,-0.415781 -0.712343,-0.651281 0,0 -0.431626,-0.225608 -0.957736,-0.222581 0,0 -1.100215,-0.01112 -1.744177,0.651721 0,0 -0.634071,0.664346 -0.641193,1.805595 0,0 -0.0042,1.121464 0.652832,1.804997 0,0 0.666919,0.684995 1.768599,0.686263 0,0 1.272775,0.0064 1.940865,-0.956213 0,0 0.669554,-0.97247 0.668857,-2.812389 0,0 0.01142,-1.71682 -0.795156,-2.756071 0,0 -0.817926,-1.030823 -2.202445,-1.033506 0,0 -0.373334,-0.0047 -0.747021,0.06132 0,0 -0.375151,0.07591 -0.801581,0.225097 z m 1.957349,3.099885 c 0,0 0.656172,0.0061 1.04424,0.457777 0,0 0.388069,0.451666 0.382715,1.239367 0,0 0.003,0.799056 -0.396557,1.245368 0,0 -0.389739,0.447777 -1.047376,0.451559 0,0 -0.666064,-0.0076 -1.054133,-0.459242 0,0 -0.378177,-0.450202 -0.371358,-1.247795 0,0 0.0054,-0.7877 0.3852,-1.236939 0,0 0.379847,-0.44924 1.057269,-0.450095 z"
     inkscape:connector-curvature="0"><title
       id="title3130">9</title></path><path
     id="path00015"
     style="fill:#000000;fill-opacity:1;fill-rule:nonzero;stroke:none"
     d="m 58.228941,38.790219 3.871095,-0.0181 0.002,-0.836001 -2.973103,0.0075 -0.0025,-1.783618 c 0,0 0.222186,0.07767 0.4294,0.113206 0,0 0.208433,0.02561 0.430449,0.02266 0,0 1.219261,-0.0013 1.926089,-0.670136 0,0 0.706827,-0.668801 0.705663,-1.80744 0,0 -0.005,-1.189486 -0.731957,-1.832933 0,0 -0.726963,-0.643446 -2.077693,-0.638113 0,0 -0.453959,0.0047 -0.926378,0.07762 0,0 -0.473639,0.08286 -0.986809,0.241472 l -3.95e-4,0.987319 c 0,0 0.452228,-0.236621 0.920819,-0.360406 0,0 0.467371,-0.113859 0.982101,-0.121147 0,0 0.845926,0.0032 1.335559,0.446186 0,0 0.499559,0.44423 0.496214,1.209534 0,0 0.009,0.746671 -0.488667,1.189287 0,0 -0.48898,0.453761 -1.32498,0.451805 0,0 -0.393187,0.0021 -0.796469,-0.0777 0,0 -0.392137,-0.08848 -0.803076,-0.26994 l 0.01271,3.668928 z"
     inkscape:connector-curvature="0"><title
       id="title3133">5</title></path><path
     id="path00016"
     style="fill:#000000;fill-opacity:1;fill-rule:nonzero;stroke:none"
     d="m 28.115983,38.321482 c 0,0 -0.748121,-0.0039 -1.138877,-0.751972 0,0 -0.380871,-0.746617 -0.392971,-2.245902 0,0 -6.96e-4,-1.507647 0.387842,-2.257272 0,0 0.378655,-0.751147 1.126776,-0.747314 0,0 0.779294,-0.0015 1.160164,0.745131 0,0 0.390755,0.748138 0.392973,2.245901 0,0 0.0022,1.497764 -0.376439,2.24891 0,0 -0.378654,0.751147 -1.159468,0.762518 z m 0.0015,0.779293 c 0,0 1.234704,-0.0022 1.880229,-0.975366 0,0 0.645524,-0.973139 0.635719,-2.816072 0,0 8e-5,-1.841413 -0.649924,-2.811567 0,0 -0.651524,-0.960269 -1.886228,-0.958041 0,0 -1.2233,-0.0061 -1.868824,0.967003 0,0 -0.645525,0.97314 -0.63572,2.816074 0,0 -7.9e-5,1.841412 0.649924,2.811565 0,0 0.650003,0.970153 1.874824,0.966404 z"
     inkscape:connector-curvature="0"><title
       id="title3136">0</title></path><path
     id="path00017"
     style="fill:#000000;fill-opacity:1;fill-rule:nonzero;stroke:none"
     d="m 66.982455,35.536926 c 0,0 -0.653691,-0.0094 -1.041891,-0.459852 0,0 -0.3882,-0.450446 -0.392793,-1.236817 0,0 0.0066,-0.795081 0.393578,-1.241408 0,0 0.388245,-0.456253 1.043149,-0.456772 0,0 0.674756,0.0019 1.062955,0.452354 0,0 0.377061,0.459157 0.380442,1.255454 0,0 -0.0042,0.775231 -0.392365,1.231483 0,0 -0.378319,0.457467 -1.053075,0.455558 z m 1.969302,3.091868 -0.0024,-0.886846 c 0,0 -0.372899,0.165969 -0.757155,0.260028 0,0 -0.384258,0.09406 -0.736524,0.09128 0,0 -0.987319,1.43e-4 -1.501351,-0.657075 0,0 -0.51403,-0.657246 -0.582125,-1.995403 0,0 0.281441,0.417243 0.717408,0.641815 0,0 0.444678,0.235714 0.959405,0.228128 0,0 1.087794,0.002 1.732254,-0.654597 0,0 0.645673,-0.666565 0.643853,-1.805202 0,0 -0.0031,-1.128712 -0.665953,-1.804163 0,0 -0.66171,-0.685378 -1.769354,-0.689844 0,0 -1.270106,0.0059 -1.932337,0.972666 0,0 -0.662232,0.966773 -0.665963,2.809946 0,0 8.93e-4,1.722846 0.8223,2.750131 0,0 0.810252,1.035997 2.190758,1.03353 0,0 0.372119,0.0052 0.744022,-0.07021 0,0 0.380615,-0.06428 0.803145,-0.224181 z"
     inkscape:connector-curvature="0"><title
       id="title3139">6</title></path><path
     id="path00018"
     style="fill:#000000;fill-opacity:1;fill-rule:nonzero;stroke:none"
     d="m 79.940457,35.151688 c 0,0 -0.698564,-0.0029 -1.100121,-0.386952 0,0 -0.391833,-0.381795 -0.3886,-1.03913 0,0 -0.0088,-0.64994 0.390093,-1.027388 0,0 0.398915,-0.377449 1.107203,-0.372292 0,0 0.698564,0.0028 1.112178,0.379557 0,0 0.403887,0.374399 0.402983,1.02201 0,0 -0.0032,0.657335 -0.404478,1.044509 0,0 -0.398914,0.377448 -1.119258,0.379686 z m -0.98078,0.402578 c 0,0 -0.624208,0.158948 -0.986147,0.596669 0,0 -0.361939,0.437721 -0.358184,1.065882 0,0 -0.0035,0.873206 0.624837,1.383648 0,0 0.620974,0.498387 1.700324,0.499893 0,0 1.089076,0.0038 1.724423,-0.502064 0,0 0.625621,-0.50823 0.619431,-1.383764 0,0 0.006,-0.625831 -0.352435,-1.061315 0,0 -0.358406,-0.435484 -0.988189,-0.596645 0,0 0.716391,-0.157429 1.109429,-0.639114 0,0 0.393037,-0.481686 0.395865,-1.18025 0,0 -8.4e-4,-1.069627 -0.636995,-1.633353 0,0 -0.648225,-0.556331 -1.860987,-0.558949 0,0 -1.203038,-2.89e-4 -1.850034,0.554235 0,0 -0.649325,0.56425 -0.658226,1.631545 0,0 0.0069,0.700894 0.404607,1.186926 0,0 0.409764,0.478637 1.112281,0.636656 z m -0.365369,1.568026 c 0,0 0.0017,-0.565152 0.367201,-0.888912 0,0 0.353431,-0.316364 0.981592,-0.32012 0,0 0.645281,0.01063 1.002469,0.322426 0,0 0.354857,0.321521 0.353142,0.886673 0,0 -0.0017,0.565152 -0.355146,0.881516 0,0 -0.365487,0.323759 -1.001043,0.315461 0,0 -0.62816,0.0038 -0.983018,-0.317765 0,0 -0.364582,-0.323851 -0.365197,-0.879279 z"
     inkscape:connector-curvature="0"><title
       id="title3142">8</title></path><path
     id="path00019"
     style="fill:#000000;fill-opacity:1;fill-rule:nonzero;stroke:none"
     d="m 141.0698,49.724546 c 0,0 -1.08122,0.03094 -1.72817,-0.760745 0,0 -0.64694,-0.791683 -0.67797,-2.167014 0,0 -0.031,-1.375332 0.56713,-2.191543 0,0 0.60632,-0.821993 1.68755,-0.852931 0,0 1.07884,-0.017 1.72001,0.766528 0,0 0.64694,0.791682 0.67797,2.167014 0,0 0.0392,1.369549 -0.56713,2.191542 0,0 -0.60633,0.821994 -1.67939,0.847149 z m 0.0145,0.798679 c 0,0 1.52765,-0.04094 2.42427,-1.093207 0,0 0.89662,-1.052271 0.8529,-2.774069 0,0 -0.0379,-1.71364 -0.98517,-2.721475 0,0 -0.94725,-1.007836 -2.48068,-0.975058 0,0 -1.52765,0.04094 -2.43006,1.08505 0,0 -0.88846,1.046488 -0.84712,2.782227 0,0 0.0437,1.721798 0.99096,2.729633 0,0 0.94725,1.007836 2.4749,0.966899 z"
     inkscape:connector-curvature="0"><title
       id="title3145">O</title></path><path
     id="path00020"
     style="fill:#000000;fill-opacity:1;fill-rule:nonzero;stroke:none"
     d="m 156.9631,49.84702 c 0,0 -1.08,0 -1.7,-0.81 0,0 -0.63,-0.8 -0.63,-2.18 0,0 0,-1.37 0.63,-2.17 0,0 0.62,-0.81 1.7,-0.81 0,0 1.08,0 1.71,0.81 0,0 0.62,0.8 0.62,2.17 0,0 0,1.38 -0.62,2.18 0,0 -0.63,0.81 -1.71,0.81 z m 1.39,-6.5 1.3,-1.42 -1.19,0 -1.09,1.17 c 0,0 -0.16,0 -0.24,-0.01 0,0 -0.09,-0.01 -0.17,-0.01 0,0 -1.53,0 -2.45,1.03 0,0 -0.92,1.04 -0.92,2.75 0,0 0,1.72 0.92,2.75 0,0 0.92,1.04 2.45,1.04 0,0 1.53,0 2.46,-1.04 0,0 0.92,-1.03 0.92,-2.75 0,0 0,-1.26 -0.51,-2.17 0,0 -0.51,-0.9 -1.48,-1.34 z"
     inkscape:connector-curvature="0"><title
       id="title3148">Q</title></path><path
     id="path00021"
     style="fill:#000000;fill-opacity:1;fill-rule:nonzero;stroke:none"
     d="m 28.739665,55.380754 c 0,0 -9.04e-4,0.981274 -0.410998,1.550768 0,0 -0.419562,0.558988 -1.120176,0.552635 0,0 -0.721105,0.0026 -1.122514,-0.558982 0,0 -0.410877,-0.572084 -0.399986,-1.55284 0,0 0.0019,-1.001247 0.40153,-1.561273 0,0 0.409576,-0.559507 1.130682,-0.562103 0,0 0.700613,0.0064 1.112009,0.56845 0,0 0.421382,0.562616 0.409453,1.563345 z m -3.062357,1.893692 c 0,0 0.274697,0.494916 0.703211,0.727458 0,0 0.428514,0.232542 1.039249,0.234226 0,0 1.001247,0.0019 1.623003,-0.786867 0,0 0.621237,-0.778823 0.617731,-2.060731 0,0 0.0075,-1.301362 -0.602183,-2.094057 0,0 -0.620206,-0.783228 -1.620934,-0.795156 0,0 -0.610735,-0.0017 -1.033671,0.236698 0,0 -0.432403,0.227876 -0.719027,0.733689 l 0.0031,-0.830958 -0.900864,-0.0067 -0.02423,7.598975 0.900864,0.0067 0.01374,-2.963277 z"
     inkscape:connector-curvature="0"><title
       id="title3151">b</title></path><path
     id="path00022"
     style="fill:#000000;fill-opacity:1;fill-rule:nonzero;stroke:none"
     d="m 39.578016,33.071823 3.44,0 0,-0.83 -4.63,0 0,0.83 c 0,0 0.57,0.58 1.54,1.56 0,0 0.96,0.98 1.21,1.27 0,0 0.47,0.53 0.66,0.89 0,0 0.19,0.37 0.19,0.73 0,0 0,0.58 -0.41,0.95 0,0 -0.4,0.36 -1.06,0.36 0,0 -0.47,0 -0.98,-0.16 0,0 -0.5,-0.16 -1.1,-0.49 l 0,1 c 0,0 0.6,0.23 1.11,0.36 0,0 0.52,0.12 0.95,0.12 0,0 1.13,0 1.81,-0.56 0,0 0.68,-0.56 0.68,-1.52 0,0 0,-0.45 -0.17,-0.85 0,0 -0.18,-0.4 -0.61,-0.94 0,0 -0.13,-0.14 -0.78,-0.82 0,0 -0.66,-0.68 -1.85,-1.9 z"
     inkscape:connector-curvature="0"><title
       id="title3154">2</title></path><path
     id="path00023"
     style="fill:#000000;fill-opacity:1;fill-rule:nonzero;stroke:none"
     d="m 51.051164,48.043303 0.01107,-1.043877 c 0,0 -0.505442,0.462416 -1.068744,0.680799 0,0 -0.563301,0.218383 -1.191299,0.214023 0,0 -1.246112,-0.01024 -1.900965,-0.779443 0,0 -0.656377,-0.779082 -0.645435,-2.217547 0,0 0.02083,-1.439988 0.694198,-2.191367 0,0 0.671849,-0.761262 1.919484,-0.741135 0,0 0.627998,0.0044 1.189162,0.231506 0,0 0.552804,0.238552 1.050182,0.708249 l 0.01259,-1.033993 c 0,0 -0.510266,-0.35641 -1.085102,-0.540975 0,0 -0.583194,-0.173158 -1.222599,-0.185878 0,0 -1.652107,-0.01848 -2.619627,0.990734 0,0 -0.957637,1.007686 -0.982167,2.75179 0,0 -0.023,1.753987 0.924641,2.781589 0,0 0.936239,1.019243 2.59823,1.036196 0,0 0.649287,0.0112 1.231615,-0.149411 0,0 0.580804,-0.170491 1.084764,-0.51126 z"
     inkscape:connector-curvature="0"><title
       id="title3157">C</title></path><path
     id="path00024"
     style="fill:#000000;fill-opacity:1;fill-rule:nonzero;stroke:none"
     d="m 54.234947,38.040579 -2.461368,-3.905352 2.48472,0.01633 -0.02335,3.889017 z m -0.269625,0.859652 1.252987,0.0047 0.02003,-4.748894 1.030969,0.0019 0.0022,-0.828731 -1.030969,-0.002 0.01461,-1.726698 -0.991405,0.0039 -0.0032,1.718281 -3.30356,-0.01701 -5e-5,0.950368 3.008485,4.644042 z"
     inkscape:connector-curvature="0"><title
       id="title3160">4</title></path><path
     id="path00025"
     style="fill:#000000;fill-opacity:1;fill-rule:nonzero;stroke:none"
     d="m 34.918106,47.324112 -1.351605,-3.621155 2.683298,-0.0035 -1.331693,3.624679 z m -0.568297,0.989716 1.130884,8e-5 2.771092,-7.303201 -1.032466,-0.0038 -0.664922,1.877332 -3.288665,0.0091 -0.659085,-1.879283 -1.045465,0.0018 2.788627,7.298024 z"
     inkscape:connector-curvature="0"><title
       id="title3163">A</title></path><path
     id="path00026"
     style="fill:#000000;fill-opacity:1;fill-rule:nonzero;stroke:none"
     d="m 26.774216,47.444654 -1.362401,-3.60904 2.681473,-0.01744 -1.319072,3.626479 z m -0.559134,0.99175 1.132778,-0.01061 2.730493,-7.308379 -1.032462,0.0046 -0.659053,1.879002 -3.278275,0.02259 -0.667672,-1.877608 -1.052208,0.0077 2.826399,7.282718 z"
     inkscape:connector-curvature="0"><desc
       id="desc3201">Un deuxième A car le premier ne détectait pas tout</desc><title
       id="title3166">A</title></path><path
     id="path00027"
     style="fill:#000000;fill-opacity:1;fill-rule:nonzero;stroke:none"
     d="m 114.43108,50.370697 0.97637,-0.0038 0.003,-6.459798 3.542,-0.0052 0.008,-0.829233 -4.53767,-0.0023 0.008,7.300324 z"
     inkscape:connector-curvature="0"><title
       id="title3169">L</title></path><path
     id="path00028"
     style="fill:#000000;fill-opacity:1;fill-rule:nonzero;stroke:none"
     d="m 47.335933,35.604285 c 0,0 0.700715,-0.151651 1.108091,-0.633984 0,0 0.39568,-0.47438 0.396994,-1.176519 0,0 0.0017,-1.078701 -0.741178,-1.668009 0,0 -0.741041,-0.599131 -2.113976,-0.605972 0,0 -0.458893,0.0043 -0.934612,0.09695 0,0 -0.485546,0.09081 -1.007565,0.266296 l 0.0028,0.947255 c 0,0 0.409746,-0.227394 0.90277,-0.3575 0,0 0.491153,-0.120283 1.02068,-0.121286 0,0 0.915915,0.0013 1.405727,0.369366 0,0 0.47999,0.36621 0.478677,1.068348 0,0 1.32e-4,0.641327 -0.455489,1.002512 0,0 -0.455572,0.361186 -1.249863,0.362691 l -0.853232,-0.0098 -0.0022,0.813938 0.884573,0.0055 c 0,0 0.73348,-0.0029 1.124582,0.295493 0,0 0.381279,0.296523 0.378542,0.845698 0,0 -0.0027,0.549175 -0.396101,0.850944 0,0 -0.403188,0.299899 -1.136667,0.302799 0,0 -0.407903,0.0038 -0.879437,-0.08596 0,0 -0.46171,-0.08789 -1.016522,-0.274926 l 0.0062,0.876621 c 0,0 0.560421,0.15757 1.055342,0.231416 0,0 0.493052,0.08367 0.910779,0.08174 0,0 1.129689,0.0012 1.78592,-0.504963 0,0 0.656231,-0.506223 0.650038,-1.382842 0,0 0.0042,-0.609986 -0.335062,-1.020654 0,0 -0.347148,-0.422362 -0.989896,-0.575242 z"
     inkscape:connector-curvature="0"><title
       id="title3172">3</title></path><path
     id="path00029"
     style="fill:#000000;fill-opacity:1;fill-rule:nonzero;stroke:none"
     d="m 103.29972,50.569476 0.98005,0.0022 -0.003,-6.78457 c 0,0 -0.007,-1.332196 -0.502,-1.924421 0,0 -0.50271,-0.586326 -1.6107,-0.594168 l -0.37202,-6.48e-4 -3.7e-4,0.83006 0.30805,-0.0022 c 0,0 0.64405,4.6e-5 0.91543,0.371465 0,0 0.27945,0.36552 0.27349,1.32352 l 0.0113,6.778671 z"
     inkscape:connector-curvature="0"><title
       id="title3175">J</title></path><path
     id="path00030"
     style="fill:#000000;fill-opacity:1;fill-rule:nonzero;stroke:none"
     d="m 176.44385,49.98125 -0.0148,-0.954034 c 0,0 -0.55916,0.279524 -1.05508,0.420126 0,0 -0.49591,0.140603 -0.96735,0.156302 0,0 -0.79594,0.01696 -1.24088,-0.2864 0,0 -0.44494,-0.303359 -0.46106,-0.882963 0,0 9e-4,-0.482596 0.27448,-0.738823 0,0 0.28747,-0.253507 1.09672,-0.411968 l 0.5902,-0.143742 c 0,0 1.09184,-0.23999 1.61397,-0.771761 0,0 0.51655,-0.54007 0.49645,-1.430292 0,0 -0.0235,-1.056621 -0.74115,-1.586349 0,0 -0.7232,-0.538028 -2.09874,-0.50495 0,0 -0.51307,0.0075 -1.10056,0.137404 0,0 -0.58748,0.129864 -1.20502,0.376333 l 0.0234,1.020565 c 0,0 0.60324,-0.357354 1.16555,-0.54259 0,0 0.5706,-0.190816 1.13361,-0.195777 0,0 0.84029,-0.02268 1.31584,0.308297 0,0 0.46168,0.328256 0.47236,0.935616 0,0 0.0187,0.52967 -0.30181,0.841549 0,0 -0.32052,0.31188 -1.08814,0.478499 l -0.58748,0.129864 c 0,0 -1.10572,0.237271 -1.58921,0.718968 0,0 -0.4835,0.481698 -0.46082,1.321987 0,0 0.0121,0.967912 0.70481,1.514378 0,0 0.69545,0.532589 1.89629,0.50851 0,0 0.51308,-0.0075 1.04519,-0.112228 0,0 0.5321,-0.104687 1.08325,-0.306521 z"
     inkscape:connector-curvature="0"><title
       id="title3178">S</title></path><path
     id="path00031"
     style="fill:#000000;fill-opacity:1;fill-rule:nonzero;stroke:none"
     d="m 47.675636,58.104053 -0.0147,-0.860804 c 0,0 -0.376308,0.209026 -0.779369,0.307218 0,0 -0.403355,0.108188 -0.853749,0.114949 0,0 -0.660596,0.01058 -0.995157,-0.179336 0,0 -0.344263,-0.200208 -0.3522,-0.610618 0,0 -8.86e-4,-0.310161 0.22461,-0.49361 0,0 0.235486,-0.183156 0.960761,-0.351905 l 0.292521,-0.08143 c 0,0 0.966935,-0.221667 1.358531,-0.610322 0,0 0.391302,-0.378659 0.38072,-1.039256 0,0 -0.01764,-0.760847 -0.625022,-1.198894 0,0 -0.607678,-0.428052 -1.658694,-0.408944 0,0 -0.450393,0.0068 -0.923424,0.102895 0,0 -0.483027,0.09584 -0.988397,0.271058 l 0.01264,0.930774 c 0,0 0.49802,-0.265473 0.972521,-0.411585 0,0 0.474207,-0.136117 0.954588,-0.141996 0,0 0.630904,-0.02146 0.974578,0.198739 0,0 0.343969,0.210204 0.352494,0.600623 0,0 0.0091,0.370428 -0.226962,0.573575 0,0 -0.236075,0.203148 -1.081886,0.38836 l -0.302516,0.08114 c 0,0 -0.826114,0.195796 -1.19713,0.565048 0,0 -0.371017,0.369251 -0.359553,0.999861 0,0 0.01705,0.780839 0.575338,1.187429 0,0 0.548585,0.3963 1.569615,0.37631 0,0 0.48038,-0.0059 0.922836,-0.0829 0,0 0.452451,-0.07673 0.807004,-0.226371 z"
     inkscape:connector-curvature="0"><title
       id="title3181">s</title></path><path
     id="path00032"
     style="fill:#000000;fill-opacity:1;fill-rule:nonzero;stroke:none"
     d="m 84.183096,42.965251 -0.0081,1.958171 -1.611479,-0.006 -2.98e-4,0.809938 2.579451,0.01132 0.0026,-3.145424 c 0,0 -0.560393,-0.38789 -1.245305,-0.600011 0,0 -0.684913,-0.212121 -1.464228,-0.22031 0,0 -1.719635,-0.0075 -2.685013,0.985752 0,0 -0.959949,1.001698 -0.973941,2.785038 0,0 -0.0056,1.777912 0.951147,2.778835 0,0 0.96217,1.00932 2.676375,1.008471 0,0 0.707212,0.0072 1.350285,-0.158527 0,0 0.651471,-0.17113 1.180526,-0.513184 l 0.0038,-1.062302 c 0,0 -0.547372,0.461068 -1.155408,0.699381 0,0 -0.613465,0.229915 -1.293022,0.228676 0,0 -1.350718,-0.0079 -2.008766,-0.74944 0,0 -0.663478,-0.749931 -0.656511,-2.231029 0,0 0.007,-1.481098 0.671981,-2.220663 0,0 0.665015,-0.739564 2.010303,-0.740055 0,0 0.526952,0.0046 0.941766,0.09369 0,0 0.400986,0.08608 0.733777,0.2877 z"
     inkscape:connector-curvature="0"><title
       id="title3184">G</title></path><path
     id="path00033"
     style="fill:#000000;fill-opacity:1;fill-rule:nonzero;stroke:none"
     d="m 40.215132,44.562651 -0.004,-2.669173 1.57876,-0.004 c 0,0 0.799789,-0.0061 1.177887,0.321219 0,0 0.384793,0.319897 0.392464,1.013396 0,0 -4.94e-4,0.672681 -0.38724,0.997219 0,0 -0.379321,0.331233 -1.17911,0.337339 l -1.57876,0.0041 z m 0.01416,3.001433 -0.0081,-2.201644 1.450919,-0.01158 c 0,0 0.736601,0.0043 1.090216,0.269124 0,0 0.354348,0.278994 0.347261,0.824566 0,0 0.0078,0.558963 -0.346239,0.832238 0,0 -0.346579,0.279969 -1.083181,0.275716 l -1.45092,0.01158 z m -0.984711,0.80873 2.520513,-0.0034 c 0,0 1.118659,-0.0014 1.731477,-0.472217 0,0 0.60539,-0.477497 0.603045,-1.341206 0,0 4.95e-4,-0.672681 -0.317352,-1.066859 0,0 -0.310414,-0.387482 -0.910183,-0.483804 0,0 0.721111,-0.157796 1.127311,-0.653278 0,0 0.405467,-0.509604 0.403025,-1.238778 0,0 -0.0015,-0.984123 -0.666373,-1.516062 0,0 -0.671556,-0.524512 -1.896505,-0.524662 l -2.619375,0.0085 0.02442,7.291735 z"
     inkscape:connector-curvature="0"><title
       id="title3187">B</title></path><path
     id="path00034"
     style="fill:#000000;fill-opacity:1;fill-rule:nonzero;stroke:none"
     d="m 53.550348,47.93311 0.0035,-5.673525 1.180677,-8.91e-4 c 0,0 1.52082,-0.0027 2.215007,0.683698 0,0 0.693841,0.676376 0.695128,2.15722 0,0 9.4e-4,1.47085 -0.69577,2.155389 0,0 -0.697057,0.674546 -2.207882,0.676872 l -1.190672,0.0012 z m -0.982381,0.814511 2.031207,-3.46e-4 c 0,0 2.101164,-0.0028 3.101108,-0.887933 0,0 0.990297,-0.874822 0.985151,-2.755772 0,0 0.0045,-1.891291 -0.986784,-2.777491 0,0 -0.99094,-0.876207 -3.102445,-0.883083 l -2.031207,3.46e-4 0.003,7.304279 z"
     inkscape:connector-curvature="0"><title
       id="title3190">D</title></path><path
     id="path00035"
     style="fill:#000000;fill-opacity:1;fill-rule:nonzero;stroke:none"
     d="m 146.74862,49.454876 -0.007,-2.754278 1.24258,6.37e-4 c 0,0 0.68503,0.0065 1.06437,0.367847 0,0 0.38772,0.355911 0.38707,1.013253 0,0 -6.6e-4,0.657343 -0.38682,1.017042 0,0 -0.38616,0.359699 -1.07118,0.353232 l -1.22874,0.0023 z m -0.98675,0.811677 2.21894,-0.004 c 0,0 1.2342,0.0061 1.85513,-0.542758 0,0 0.62383,-0.562703 0.62567,-1.638852 0,0 0.002,-1.076149 -0.61981,-1.625648 0,0 -0.62165,-0.5495 -1.86423,-0.550137 l -1.22874,0.0023 0.003,-2.940016 -0.9902,0.0017 4.5e-4,7.297411 z"
     inkscape:connector-curvature="0"><title
       id="title3193">P</title></path><!--</g>--><text
     xml:space="preserve"
     style="font-size:40px;font-style:normal;font-weight:normal;line-height:125%;letter-spacing:0px;word-spacing:0px;fill:#000000;fill-opacity:1;stroke:none;font-family:Sans"
     x="1.5460696"
     y="-6.9442096"
     id="text3052"
     sodipodi:linespacing="125%"><tspan
       sodipodi:role="line"
       id="tspan3054"
       x="1.5460696"
       y="-6.9442096" /></text>
<text
     xml:space="preserve"
     style="font-size:10px;font-style:normal;font-weight:normal;line-height:125%;letter-spacing:0px;word-spacing:0px;fill:#000000;fill-opacity:1;stroke:none;font-family:Sans"
     x="17.586542"
     y="101.28066"
     id="text3056"
     sodipodi:linespacing="125%"><tspan
       sodipodi:role="line"
       x="17.586542"
       y="101.28066"
       id="tspan3060"
       style="font-size:8px">Ce fichier SVG sert de liste de référence pour comparer</tspan><tspan
       sodipodi:role="line"
       x="17.586542"
       y="111.28066"
       id="tspan3064"
       style="font-size:8px">les paths extraits du cadastre et identifier les numéros de rues.</tspan><tspan
       sodipodi:role="line"
       x="17.586542"
       y="121.28066"
       id="tspan3066"
       style="font-size:8px">La valeur textuelle de chaque path est contenue dans son titre</tspan><tspan
       sodipodi:role="line"
       x="17.586542"
       y="131.28067"
       id="tspan3068"
       style="font-size:8px">(accessible en affichant ses propriétés)</tspan><tspan
       sodipodi:role="line"
       x="17.586542"
       y="141.28067"
       style="font-size:8px"
       id="tspan3070">Les paths sont inversés haut/bas à cause de la projection utilisée </tspan><tspan
       sodipodi:role="line"
       x="17.586542"
       y="151.28067"
       style="font-size:8px"
       id="tspan3072">par le cadastre (par exemple Lambert 9 Zones) qui inverse l'axe Y.</tspan></text>
<path
     id="path75796"
     style="fill:#000000;fill-opacity:1;fill-rule:nonzero;stroke:none"
     d="m 212.54678,50.242487 1.05379,6e-5 2.01255,-3.000577 2.00473,2.996753 1.06793,3.26e-4 -2.58203,-3.828809 -3.5e-4,-3.465547 -0.9831,0.0014 3.6e-4,3.465547 -2.57389,3.830882 z"
     inkscape:connector-curvature="0"><title
       id="title29182">Y</title></path><path
     id="path76224"
     style="fill:#000000;fill-opacity:1;fill-rule:nonzero;stroke:none"
     d="m 205.3576,50.218433 1.05802,0.0025 1.82001,-2.72141 1.82816,2.714835 1.04996,0.0085 -2.34583,-3.501031 2.49073,-3.800033 -1.04403,-4.22e-4 -2.05502,3.093525 -2.06517,-3.086758 -1.06395,-0.01058 2.61464,3.899217 -2.28752,3.40166 z"
     inkscape:connector-curvature="0"><title
       id="title29180">X</title></path><path
     id="path76268"
     style="fill:#000000;fill-opacity:1;fill-rule:nonzero;stroke:none"
     d="m 219.75524,50.275375 5.73062,0.0018 4e-4,-0.765571 -4.6018,-5.706122 4.71426,0.0031 0.003,-0.832579 -5.94994,-0.0032 -0.004,0.756426 4.61095,5.702077 -4.50813,-0.0068 0.005,0.850869 z"
     inkscape:connector-curvature="0"><title
       id="title29184">Z</title></path></svg>