<?xml version="1.0" encoding="UTF-8" standalone="no"?>
<svg
   xmlns:dc="http://purl.org/dc/elements/1.1/"
   xmlns:cc="http://creativecommons.org/ns#"
   xmlns:rdf="http://www.w3.org/1999/02/22-rdf-syntax-ns#"
   xmlns:svg="http://www.w3.org/2000/svg"
   xmlns="http://www.w3.org/2000/svg"
   xmlns:sodipodi="http://sodipodi.sourceforge.net/DTD/sodipodi-0.dtd"
   xmlns:inkscape="http://www.inkscape.org/namespaces/inkscape"
   xml:space="preserve"
   height="1052.5"
   width="1488.75"
   version="1.1"
   inkscape:version="0.48.4 r9939"
   sodipodi:docname="reference-noms_de_quartier.svg"
   id="svg2"><metadata
     id="metadata4"><rdf:RDF><cc:Work
         rdf:about=""><dc:format>image/svg+xml</dc:format><dc:type
           rdf:resource="http://purl.org/dc/dcmitype/StillImage" /></cc:Work></rdf:RDF></metadata><defs
     id="defs6" /><sodipodi:namedview
     pagecolor="#ffffff"
     bordercolor="#666666"
     borderopacity="1"
     objecttolerance="10"
     gridtolerance="10"
     guidetolerance="10"
     inkscape:pageopacity="0"
     inkscape:pageshadow="2"
     inkscape:window-width="1916"
     inkscape:window-height="1161"
     showgrid="false"
     inkscape:zoom="2.022779"
     inkscape:cx="382.77535"
     inkscape:cy="947.9009"
     inkscape:window-x="0"
     inkscape:window-y="18"
     inkscape:window-maximized="0"
     inkscape:current-layer="svg2"
     showguides="true"
     inkscape:guide-bbox="true"
     id="namedview8"><sodipodi:guide
       orientation="1,0"
       position="337.82579,971.1283"
       id="guide10" /></sodipodi:namedview><!-- inversion de l'axe Y pour remetre à l'endroit:
<g transform='matrix(1,0,0,-1,0,0)'>--><!--</g>--><text
     xml:space="preserve"
     style="font-size:16px;font-style:normal;font-weight:normal;line-height:125%;letter-spacing:0px;word-spacing:0px;fill:#000000;fill-opacity:1;stroke:none;font-family:Sans"
     x="10.937244"
     y="187.34946"
     sodipodi:linespacing="125%"
     id="text12"><tspan
       sodipodi:role="line"
       x="10.937244"
       y="187.34946"
       style="font-size:16px"
       id="tspan14">Ce fichier SVG sert de liste de référence pour comparer</tspan><tspan
       sodipodi:role="line"
       x="10.937244"
       y="202.34946"
       style="font-size:16px"
       id="tspan16">les paths extraits du cadastre et identifier les noms de quartiers.</tspan><tspan
       sodipodi:role="line"
       x="10.937244"
       y="217.34946"
       style="font-size:16px"
       id="tspan18">La valeur textuelle de chaque path est contenue dans son titre</tspan><tspan
       sodipodi:role="line"
       x="10.937244"
       y="232.34946"
       style="font-size:16px"
       id="tspan20">(accessible en affichant ses propriétés)</tspan><tspan
       sodipodi:role="line"
       x="10.937244"
       y="247.34946"
       style="font-size:16px"
       id="tspan22">Les paths sont inversés haut/bas à cause de la projection utilisée </tspan><tspan
       sodipodi:role="line"
       x="10.937244"
       y="262.34946"
       style="font-size:16px"
       id="tspan24">par le cadastre (par exemple Lambert 9 Zones) qui inverse l'axe Y.</tspan></text>
<path
     style="fill:#000000;fill-opacity:1;fill-rule:nonzero;stroke:none"
     d="m 602.48859,29.807247 0,-3.94 c 0,0 -2.29,1.1 -4.33,1.63 0,0 -2.04,0.54 -3.95,0.54 0,0 -3.31,0 -5.1,-1.28 0,0 -1.79,-1.28 -1.79,-3.64 0,0 0,-1.98 1.2,-2.99 0,0 1.19,-1.01 4.5,-1.63 l 2.46,-0.5 c 0,0 4.51,-0.86 6.67,-3.03 0,0 2.15,-2.18 2.15,-5.82 0,0 0,-4.3400001 -2.91,-6.5800001 0,0 -2.91,-2.25000001 -8.54,-2.25000001 0,0 -2.12,0 -4.51,0.48 0,0 -2.39,0.48000001 -4.96,1.43000001 l 0,4.1600001 c 0,0 2.46,-1.3800001 4.82,-2.0800001 0,0 2.37,-0.7 4.65,-0.7 0,0 3.45,0 5.34,1.36 0,0 1.88,1.3500001 1.88,3.8900001 0,0 0,2.2 -1.35,3.43 0,0 -1.35,1.24 -4.43,1.86 l -2.47,0.49 c 0,0 -4.52,0.9 -6.54,2.83 0,0 -2.02,1.92 -2.02,5.34 0,0 0,3.95 2.79,6.24 0,0 2.79,2.29 7.69,2.29 0,0 2.11,0 4.29,-0.38 0,0 2.18,-0.39 4.46,-1.15 z"
     inkscape:connector-curvature="0"
     id="path26"><title
       id="title28">S</title></path><path
     style="fill:#000000;fill-opacity:1;fill-rule:nonzero;stroke:none"
     d="m 18.748738,26.978177 -5.48,-14.88 10.98,0 -5.5,14.88 z m -2.28,3.98 4.58,0 11.39,-29.8899993 -4.21,0 -2.71,7.6700002 -13.47,0 -2.74,-7.6700002 -4.25,0 11.41,29.8899993 z"
     inkscape:connector-curvature="0"
     id="path30"><title
       id="title32">A</title></path><path
     style="fill:#000000;fill-opacity:1;fill-rule:nonzero;stroke:none"
     d="m 497.129,28.456197 0,-11.24 5.09,0 c 0,0 2.81,0 4.36,1.47 0,0 1.55,1.47 1.55,4.16 0,0 0,2.68 -1.55,4.14 0,0 -1.55,1.47 -4.36,1.47 l -5.09,0 z m -4.03,3.32 9.12,0 c 0,0 5.02,0 7.59,-2.27 0,0 2.58,-2.27 2.58,-6.66 0,0 0,-4.43 -2.58,-6.68 0,0 -2.57,-2.26 -7.59,-2.26 l -5.09,0 0,-12.0199998 -4.03,0 0,29.8899998 z"
     inkscape:connector-curvature="0"
     id="path34"><title
       id="title36">P</title></path><path
     style="fill:#000000;fill-opacity:1;fill-rule:nonzero;stroke:none"
     d="m 129.56234,34.412236 18.89,0 0,-3.4 -14.86,0 0,-8.85 14.23,0 0,-3.4 -14.23,0 0,-10.8299999 15.22,0 0,-3.4099999 -19.25,0 0,29.8899998 z"
     inkscape:connector-curvature="0"
     id="path38"><title
       id="title40">E</title></path><path
     style="fill:#000000;fill-opacity:1;fill-rule:nonzero;stroke:none"
     d="m 613.81687,28.675692 25.3,0 0,-3.4 -10.63,0 0,-26.4900001 -4.06,0 0,26.4900001 -10.61,0 0,3.4 z"
     inkscape:connector-curvature="0"
     id="path42"><title
       id="title44">T</title></path><path
     style="fill:#000000;fill-opacity:1;fill-rule:nonzero;stroke:none"
     d="m 814.88938,29.973145 4.35,0 8.28,-12.299999 8.23,12.299999 4.34999,0 -10.57999,-15.66 0,-14.2300008 -4.07,0 0,14.2300008 -10.56,15.66 z"
     inkscape:connector-curvature="0"
     id="path46"><title
       id="title48">Y</title></path><path
     style="fill:#000000;fill-opacity:1;fill-rule:nonzero;stroke:none"
     d="m 563.53001,13.564991 c 0,0 1.3,-0.43 2.53,-1.88 0,0 1.24,-1.44 2.47,-3.96 l 4.10999,-8.16999973 -4.33999,0 -3.83,7.66999973 c 0,0 -1.48,3 -2.87,3.98 0,0 -1.39,0.97 -3.8,0.97 l -4.41,0 0,-12.61999973 -4.03,0 0,29.89000073 9.13,0 c 0,0 5.12,0 7.64,-2.14 0,0 2.53,-2.14 2.53,-6.47 0,0 0,-2.83 -1.31,-4.69 0,0 -1.32,-1.860001 -3.82,-2.580001 z m -10.14,12.550001 0,-10.61 5.1,0 c 0,0 2.92,0 4.41,1.35 0,0 1.49,1.35 1.49,3.98 0,0 0,2.62 -1.49,3.95 0,0 -1.49,1.33 -4.41,1.33 l -5.1,0 z"
     inkscape:connector-curvature="0"
     id="path50"><title
       id="title52">R</title></path><path
     style="fill:#000000;fill-opacity:1;fill-rule:nonzero;stroke:none"
     d="m 467.025,30.709993 c 0,0 -4.41,0 -7,-3.28 0,0 -2.6,-3.28 -2.6,-8.940001 0,0 0,-5.660001 2.6,-8.940001 0,0 2.59,-3.28 7,-3.28 0,0 4.4,0 6.97,3.28 0,0 2.57,3.28 2.57,8.940001 0,0 0,5.660001 -2.57,8.940001 0,0 -2.57,3.28 -6.97,3.28 z m 0,3.3 c 0,0 6.28,0 10.04,-4.22 0,0 3.77,-4.22 3.77,-11.300001 0,0 0,-7.080001 -3.77,-11.290001 0,0 -3.76,-4.2099999 -10.04,-4.2099999 0,0 -6.32,0 -10.09,4.1999999 0,0 -3.77,4.21 -3.77,11.300001 0,0 0,7.080001 3.77,11.300001 0,0 3.77,4.22 10.09,4.22 z"
     inkscape:connector-curvature="0"
     id="path54"><title
       id="title56">O</title></path><path
     style="fill:#000000;fill-opacity:1;fill-rule:nonzero;stroke:none"
     d="m 346.705,32.444992 4.03,0 0,-26.4900002 14.56,0 0,-3.4 -18.59,0 0,29.8900002 z"
     inkscape:connector-curvature="0"
     id="path58"><title
       id="title60">L</title></path><path
     style="fill:#000000;fill-opacity:1;fill-rule:nonzero;stroke:none"
     d="m 381.33,31.444993 6.01,0 7.63,-20.340002 7.67,20.340002 6.03,0 0,-29.8900022 -3.95,0 0,26.2500022 -7.71,-20.5000022 -4.06,0 -7.7,20.5000022 0,-26.2500022 -3.92,0 0,29.8900022 z"
     inkscape:connector-curvature="0"
     id="path62"><title
       id="title64">M</title></path><path
     style="fill:#000000;fill-opacity:1;fill-rule:nonzero;stroke:none"
     d="m 206.055,11.829992 0,8.04 -6.61,0 0,3.31 10.61,0 0,-12.83 c 0,0 -2.35,-1.6600005 -5.17,-2.5100002 0,0 -2.82,-0.85 -6.02,-0.85 0,0 -7.02,0 -10.97,4.0900002 0,0 -3.95,4.099999 -3.95,11.41 0,0 0,7.31 3.95,11.41 0,0 3.95,4.11 10.97,4.11 0,0 2.92,0 5.55,-0.73 0,0 2.64,-0.73 4.85,-2.12 l 0,-4.31 c 0,0 -2.23,1.91 -4.75,2.87 0,0 -2.53,0.96 -5.31,0.96 0,0 -5.48,0 -8.24,-3.06 0,0 -2.76,-3.07 -2.76,-9.13 0,0 0,-6.050001 2.76,-9.110001 0,0 2.76,-3.059999 8.24,-3.059999 0,0 2.14,0 3.82,0.37 0,0 1.68,0.36 3.03,1.14 z"
     inkscape:connector-curvature="0"
     id="path66"><title
       id="title68">G</title></path><path
     style="fill:#000000;fill-opacity:1;fill-rule:nonzero;stroke:none"
     d="m 419.695,30.444992 5.44001,0 13.25,-25.0000004 0,25.0000004 3.92,0 0,-29.89000041 -5.44,0 -13.25,25.00000041 0,-25.00000041 -3.92001,0 0,29.89000041 z"
     inkscape:connector-curvature="0"
     id="path70"><title
       id="title72">N</title></path><path
     style="fill:#000000;fill-opacity:1;fill-rule:nonzero;stroke:none"
     d="m 102.465,30.114992 0,-23.2300004 4.89,0 c 0,0 6.19,0 9.07,2.79 0,0 2.87,2.8000004 2.87,8.8500004 0,0 0,6.01 -2.87,8.8 0,0 -2.88,2.79 -9.07,2.79 l -4.89,0 z m -4.029999,3.33 8.299999,0 c 0,0 8.69,0 12.76,-3.62 0,0 4.07,-3.62 4.07,-11.3 0,0 0,-7.72 -4.09,-11.3500004 0,0 -4.09,-3.6199995 -12.74,-3.6199995 l -8.299999,0 0,29.8899999 z"
     inkscape:connector-curvature="0"
     id="path74"><title
       id="title76">D</title></path><path
     style="fill:#000000;fill-opacity:1;fill-rule:nonzero;stroke:none"
     d="m 266.985,34.444991 4.03,0 0,-29.8899984 -4.03,0 0,29.8899984 z"
     inkscape:connector-curvature="0"
     id="path78"><title
       id="title80">I</title></path><path
     style="fill:#000000;fill-opacity:1;fill-rule:nonzero;stroke:none"
     d="m 698.71501,-0.44501195 -11.4,29.88999995 4.22,0 9.47,-25.1699999 9.48,25.1699999 4.2,0 -11.39,-29.88999995 -4.58,0 z"
     inkscape:connector-curvature="0"
     id="path82"><title
       id="title84">V</title></path><path
     style="fill:#000000;fill-opacity:1;fill-rule:nonzero;stroke:none"
     d="m 88.055,31.159992 0,-4.26 c 0,0 -2.05,1.89 -4.36,2.83 0,0 -2.31,0.95 -4.9,0.95 0,0 -5.13,0 -7.86,-3.14 0,0 -2.72,-3.13 -2.72,-9.05 0,0 0,-5.910001 2.72,-9.0400007 0,0 2.73,-3.1299999 7.86,-3.1299999 0,0 2.59,0 4.9,0.94 0,0 2.31,0.93 4.36,2.8399996 l 0,-4.2399996 c 0,0 -2.12,-1.4299996 -4.49,-2.1499996 0,0 -2.37,-0.72 -5.02,-0.72 0,0 -6.79,0 -10.69,4.1599996 0,0 -3.91,4.1499996 -3.91,11.3400006 0,0 0,7.2 3.91,11.36 0,0 3.9,4.16 10.69,4.16 0,0 2.68,0 5.06,-0.72 0,0 2.37,-0.71 4.45,-2.13 z"
     inkscape:connector-curvature="0"
     id="path86"><title
       id="title88">C</title></path><path
     style="fill:#000000;fill-opacity:1;fill-rule:nonzero;stroke:none"
     d="m 647.55501,29.734989 4.07,0 0,-18.16 c 0,0 0,-4.8099998 1.74,-6.9199998 0,0 1.74,-2.11 5.65,-2.11 0,0 3.89,0 5.62,2.11 0,0 1.74,2.11 1.74,6.9199998 l 0,18.16 4.07,0 0,-18.66 c 0,0 0,-5.8399998 -2.9,-8.8299998 0,0 -2.89,-2.98 -8.53,-2.98 0,0 -5.68,0 -8.57,2.98 0,0 -2.89,2.99 -2.89,8.8299998 l 0,18.66 z"
     inkscape:connector-curvature="0"
     id="path90"><title
       id="title92">U</title></path><path
     style="fill:#000000;fill-opacity:1;fill-rule:nonzero;stroke:none"
     d="m 159.415,32.444988 17.17,0 0,-3.41 -13.14,0 0,-8.81 11.86,0 0,-3.39 -11.86,0 0,-14.2799996 -4.03,0 0,29.8899996 z"
     inkscape:connector-curvature="0"
     id="path94"><title
       id="title96">F</title></path><path
     style="fill:#000000;fill-opacity:1;fill-rule:nonzero;stroke:none"
     d="m 39.440001,14.834992 0,-10.9500005 6.48,0 c 0,0 3.27,0 4.84,1.35 0,0 1.57,1.35 1.57,4.13 0,0 0,2.8000005 -1.57,4.1300005 0,0 -1.57,1.34 -4.84,1.34 l -6.48,0 z m 0,12.28 0,-9 5.98,0 c 0,0 2.97,0 4.42,1.11 0,0 1.46,1.11 1.46,3.39 0,0 0,2.27 -1.46,3.38 0,0 -1.45,1.12 -4.42,1.12 l -5.98,0 z m -4.03,3.33 10.32,0 c 0,0 4.63,0 7.13,-1.92 0,0 2.5,-1.93 2.5,-5.47 0,0 0,-2.74 -1.28,-4.36 0,0 -1.28,-1.63 -3.77,-2.03 0,0 2.99,-0.64 4.64,-2.67 0,0 1.64,-2.04 1.64,-5.0700005 0,0 0,-4.01 -2.71,-6.19 0,0 -2.72,-2.17999999 -7.75,-2.17999999 l -10.72,0 0,29.89000049 z"
     inkscape:connector-curvature="0"
     id="path98"><title
       id="title100">B</title></path><path
     style="fill:#000000;fill-opacity:1;fill-rule:nonzero;stroke:none"
     d="m 228.61,32.444989 4.03,0 0,-12.25 14.7,0 0,12.25 4.05,0 0,-29.8899998 -4.05,0 0,14.2299998 -14.7,0 0,-14.2299998 -4.03,0 0,29.8899998 z"
     inkscape:connector-curvature="0"
     id="path102"><title
       id="title104">H</title></path><path
     style="fill:#000000;fill-opacity:1;fill-rule:nonzero;stroke:none"
     d="m 295.065,33.544989 4.03,0 0,-27.8099998 c 0,0 0,-5.41000003 -2.05,-7.84 0,0 -2.05,-2.439997 -6.59,-2.439997 l -1.55,0 0,3.389997 1.27,0 c 0,0 2.68,0 3.78,1.50999997 0,0 1.11,1.51000003 1.11,5.38000003 l 0,27.8099998 z"
     inkscape:connector-curvature="0"
     id="path106"><title
       id="title108">J</title></path><path
     style="fill:#000000;fill-opacity:1;fill-rule:nonzero;stroke:none"
     d="m 852.90203,30.258055 23.49,0 0,-3.08 -18.89,-23.4100002 19.35,0 0,-3.39999996 -24.4,0 0,3.07999996 18.89,23.4000002 -18.44,0 0,3.41 z"
     inkscape:connector-curvature="0"
     id="path110"><title
       id="title112">Z</title></path><path
     style="fill:#000000;fill-opacity:1;fill-rule:nonzero;stroke:none"
     d="m 780.04537,30.752424 4.35,0 7.43,-11.11 7.47,11.11 4.35,0 -9.61,-14.36 10.25,-15.52999971 -4.35,0 -8.42,12.71999971 -8.47,-12.71999971 -4.36,0 10.68,15.95999971 -9.32,13.93 z"
     inkscape:connector-curvature="0"
     id="path114"><title
       id="title116">X</title></path><path
     style="fill:#000000;fill-opacity:1;fill-rule:nonzero;stroke:none"
     d="m 529.4946,27.895578 c 0,0 -4.4,0 -7,-3.28 0,0 -2.59,-3.28 -2.59,-8.94 0,0 0,-5.66 2.59,-8.9400004 0,0 2.6,-3.28 7,-3.28 0,0 4.41,0 6.98,3.28 0,0 2.57,3.2800004 2.57,8.9400004 0,0 0,5.66 -2.57,8.94 0,0 -2.57,3.28 -6.98,3.28 z m 5.67,-26.6000004 5.32,-5.82 -4.88,0 -4.42,4.77999996 c 0,0 -0.67,-0.05 -1.02,-0.06 0,0 -0.36,-0.02 -0.67,-0.02 0,0 -6.31,0 -10.08,4.21000004 0,0 -3.78,4.21 -3.78,11.2900004 0,0 0,7.08 3.78,11.3 0,0 3.77,4.22 10.08,4.22 0,0 6.28,0 10.05,-4.22 0,0 3.76,-4.22 3.76,-11.3 0,0 0,-5.22 -2.09,-8.9200004 0,0 -2.09,-3.71 -6.05,-5.46 z"
     inkscape:connector-curvature="0"
     id="path118"><title
       id="title120">Q</title></path><path
     style="fill:#000000;fill-opacity:1;fill-rule:nonzero;stroke:none"
     d="m 37.115766,88.142244 10.8,0 0,-3.28 -10.8,0 0,3.28 z"
     inkscape:connector-curvature="0"
     id="path122"><title
       id="title124">-</title></path><path
     style="fill:#000000;fill-opacity:1;fill-rule:nonzero;stroke:none"
     d="m 23.7,102.05499 0,-11.109998 -3.4,0 0,11.109998 3.4,0 z"
     inkscape:connector-curvature="0"
     id="path126"><title
       id="title128">'</title></path><path
     id="path15072"
     style="fill:#000000;fill-opacity:1;fill-rule:nonzero;stroke:none"
     d="m 728.5615,28.280564 4.1,0 6.28,-25.2700014 6.26,25.2700014 4.55,0 6.28,-25.2700014 6.27,25.2700014 4.11,0 -7.52,-29.8900014 -5.08,0 -6.31,25.9500014 -6.36,-25.9500014 -5.09,0 -7.49,29.8900014 z"
     inkscape:connector-curvature="0"><title
       id="title3112">W</title></path><path
     id="path15072-0"
     style="fill:#000000;fill-opacity:1;fill-rule:nonzero;stroke:none"
     d="m 313.44005,29.763672 4.03,0 0,-12.64 13.42,12.64 5.2,0 -14.83,-13.93 15.89,-15.96000006 -5.32,0 -14.36,14.39000006 0,-14.39000006 -4.03,0 0,29.89000006 z"
     inkscape:connector-curvature="0"><title
       id="title3121">K</title></path></svg>