<?xml version="1.0" encoding="UTF-8" standalone="no"?>
<svg
   xmlns:dc="http://purl.org/dc/elements/1.1/"
   xmlns:cc="http://creativecommons.org/ns#"
   xmlns:rdf="http://www.w3.org/1999/02/22-rdf-syntax-ns#"
   xmlns:svg="http://www.w3.org/2000/svg"
   xmlns="http://www.w3.org/2000/svg"
   xmlns:sodipodi="http://sodipodi.sourceforge.net/DTD/sodipodi-0.dtd"
   xmlns:inkscape="http://www.inkscape.org/namespaces/inkscape"
   xml:space="preserve"
   height="1052.5"
   width="1488.75"
   version="1.1"
   id="svg2"
   inkscape:version="0.48.4 r9939"
   sodipodi:docname="reference-noms_de_rue.svg"><metadata
     id="metadata316"><rdf:RDF><cc:Work
         rdf:about=""><dc:format>image/svg+xml</dc:format><dc:type
           rdf:resource="http://purl.org/dc/dcmitype/StillImage" /></cc:Work></rdf:RDF></metadata><defs
     id="defs314" /><sodipodi:namedview
     pagecolor="#ffffff"
     bordercolor="#666666"
     borderopacity="1"
     objecttolerance="10"
     gridtolerance="10"
     guidetolerance="10"
     inkscape:pageopacity="0"
     inkscape:pageshadow="2"
     inkscape:window-width="1916"
     inkscape:window-height="1161"
     id="namedview312"
     showgrid="false"
     inkscape:zoom="2.8284271"
     inkscape:cx="172.44376"
     inkscape:cy="900.70724"
     inkscape:window-x="0"
     inkscape:window-y="18"
     inkscape:window-maximized="0"
     inkscape:current-layer="svg2"
     showguides="true"
     inkscape:guide-bbox="true"><sodipodi:guide
       orientation="1,0"
       position="337.82579,971.1283"
       id="guide3180" /></sodipodi:namedview><!-- inversion de l'axe Y pour remetre à l'endroit:
<g transform='matrix(1,0,0,-1,0,0)'>--><path
     style="fill:#000000;fill-opacity:1;fill-rule:nonzero;stroke:none"
     d="m 198.73817,79.831929 c 0,0 0.70023,1.264187 1.68564,1.873026 0,0 0.9854,0.608839 2.32173,0.608956 0,0 1.7881,0.0041 2.76453,-1.246749 0,0 0.97741,-1.260823 0.9824,-3.571315 l 0.006,-6.942404 -1.88957,0.0061 -0.009,6.871763 c 0,0 5.4e-4,1.637834 -0.59078,2.44409 0,0 -0.59131,0.806256 -1.78637,0.799866 0,0 -1.46669,-0.0028 -2.32552,-0.981092 0,0 -0.84888,-0.977297 -0.84454,-2.664893 l 0.011,-6.479721 -1.88859,-0.0039 -0.009,6.871762 c 0,0 -0.0114,1.656765 -0.59176,2.454043 0,0 -0.59034,0.796304 -1.80627,0.797919 0,0 -1.45674,-0.0018 -2.30465,-0.989098 0,0 -0.8479,-0.987249 -0.84453,-2.664893 l 0.011,-6.47972 -1.89855,-0.0049 -0.0181,11.482794 1.89855,0.0049 0.003,-1.778142 c 0,0 0.65101,1.048369 1.54565,1.557899 0,0 0.90459,0.510504 2.15039,0.51181 0,0 1.24579,0.0013 2.12302,-0.646358 0,0 0.87625,-0.637711 1.30454,-1.831683 z"
     id="path4"
     inkscape:connector-curvature="0"><title
       id="title6">m</title></path><path
     style="fill:#000000;fill-opacity:1;fill-rule:nonzero;stroke:none"
     d="m 312.69636,48.8573 12.95424,-0.0031 0.002,-1.753852 -5.43399,0.0034 -0.017,-13.560793 -2.07634,-0.0024 0.007,13.55953 -5.43523,0.01329 -5.6e-4,1.743933 z"
     id="path8"
     inkscape:connector-curvature="0"><title
       id="title10">T</title></path><path
     style="fill:#000000;fill-opacity:1;fill-rule:nonzero;stroke:none"
     d="m 290.74102,81.287532 c 0,0 -0.33245,0.193587 -0.69932,0.278476 0,0 -0.37686,0.08529 -0.8273,0.08349 0,0 -1.60112,0.0047 -2.45409,-1.04172 0,0 -0.86255,-1.036003 -0.86139,-2.987643 l -0.005,-6.044765 -1.89168,-0.0036 0.004,11.489211 1.89128,-0.0064 -0.002,-1.781375 c 0,0 0.61275,1.046103 1.56422,1.558087 0,0 0.95146,0.511985 2.31236,0.507008 0,0 0.19026,0.0023 0.42925,-0.02736 0,0 0.23859,-0.03968 0.52714,-0.08136 l 0.0116,-1.942052 z"
     id="path12"
     inkscape:connector-curvature="0"><title
       id="title14">r</title></path><path
     style="fill:#000000;fill-opacity:1;fill-rule:nonzero;stroke:none"
     d="m 44.995346,147.02363 c 0,0 -1.379431,-2.36805 -2.046621,-4.66388 0,0 -0.673637,-2.30843 -0.674318,-4.6834 0,0 -6.42e-4,-2.37497 0.663296,-4.69308 0,0 0.676562,-2.32456 2.051865,-4.66531 l -1.638167,-0.003 c 0,0 -1.554906,2.40889 -2.307299,4.7405 0,0 -0.76191,2.32854 -0.755697,4.62124 0,0 -2.71e-4,2.28011 0.752611,4.60358 0,0 0.765431,2.31703 2.316163,4.74036 l 1.638167,0.003 z"
     id="path16"
     inkscape:connector-curvature="0"><title
       id="title18">(</title></path><path
     style="fill:#000000;fill-opacity:1;fill-rule:nonzero;stroke:none"
     d="m 308.70654,83.440941 -0.0112,-1.780414 c 0,0 -0.7875,0.404403 -1.64823,0.61403 0,0 -0.86073,0.209628 -1.78249,0.217326 0,0 -1.40683,0.0052 -2.11073,-0.426306 0,0 -0.70389,-0.431545 -0.70233,-1.309553 0,0 -0.006,-0.65251 0.49293,-1.01859 0,0 0.49848,-0.366079 2.01549,-0.714628 l 0.65628,-0.138921 c 0,0 1.99575,-0.440748 2.85262,-1.230104 0,0 0.85434,-0.779679 0.8491,-2.18651 0,0 -0.006,-1.6033 -1.27213,-2.532881 0,0 -1.26645,-0.929582 -3.48818,-0.930121 0,0 -0.92176,0.0077 -1.91796,0.182005 0,0 -0.99872,0.183984 -2.10597,0.54636 l -0.003,1.952483 c 0,0 1.05337,-0.552106 2.06512,-0.825701 0,0 1.01176,-0.273594 1.9941,-0.275831 0,0 1.34372,-0.001 2.06193,0.45492 0,0 0.7304,0.448791 0.72673,1.295246 0,0 -0.003,0.763998 -0.52109,1.16626 0,0 -0.52078,0.41194 -2.2759,0.80175 l -0.65628,0.138921 c 0,0 -1.74292,0.382657 -2.52196,1.150967 0,0 -0.78871,0.765787 -0.78264,2.09016 0,0 6.4e-4,1.622652 1.15349,2.512282 0,0 1.14569,0.877431 3.25594,0.869571 0,0 1.0526,0.0057 1.9735,-0.157191 0,0 0.91837,-0.153261 1.70252,-0.46553 z"
     id="path20"
     inkscape:connector-curvature="0"><title
       id="title22">s</title></path><path
     style="fill:#000000;fill-opacity:1;fill-rule:nonzero;stroke:none"
     d="m 309.74885,48.551849 0.004,-2.035776 c 0,0 -1.17625,0.558414 -2.21931,0.847091 0,0 -1.05099,0.276972 -2.01789,0.274787 0,0 -1.70039,-3.29e-4 -2.61358,-0.654058 0,0 -0.91132,-0.663555 -0.91302,-1.875576 0,0 0.002,-1.017888 0.60963,-1.532597 0,0 0.60783,-0.514709 2.3175,-0.828254 l 1.24137,-0.260821 c 0,0 2.31469,-0.44187 3.42194,-1.542999 0,0 1.09932,-1.112833 1.1022,-2.985824 0,0 0.008,-2.218206 -1.4916,-3.37135 0,0 -1.4898,-1.151262 -4.36104,-1.152164 0,0 -1.10022,0.0028 -2.31629,0.237916 0,0 -1.21795,0.244948 -2.5321,0.725999 l -0.003,2.137754 c 0,0 1.25362,-0.69631 2.46283,-1.054939 0,0 1.20921,-0.358628 2.38006,-0.358052 0,0 1.77102,0.0036 2.73749,0.69819 0,0 0.96647,0.694499 0.97276,1.988856 0,0 -0.003,1.12969 -0.70395,1.758881 0,0 -0.69126,0.63108 -2.2695,0.949471 l -1.26893,0.245349 c 0,0 -2.30863,0.463396 -3.34229,1.446271 0,0 -1.03366,0.982876 -1.03359,2.734246 0,0 -0.004,2.035778 1.42167,3.205198 0,0 1.43503,1.171306 3.92783,1.181074 0,0 1.08057,-0.0066 2.19695,-0.199711 0,0 1.11637,-0.193156 2.29006,-0.578962 z"
     id="path24"
     inkscape:connector-curvature="0"><title
       id="title26">S</title></path><path
     style="fill:#000000;fill-opacity:1;fill-rule:nonzero;stroke:none"
     d="m 15.634251,104.69557 c 0,0 -2.298975,-0.004 -3.179665,-0.52205 0,0 -0.880693,-0.51815 -0.876813,-1.78306 0,0 -8.8e-5,-1.00244 0.662639,-1.59176 0,0 0.675395,-0.5956 1.813813,-0.59211 0,0 1.558986,0.008 2.50427,1.11765 0,0 0.954761,1.11289 0.952229,2.96915 l 0.0019,0.40161 -1.878404,5.7e-4 z m 3.763859,0.79263 0.0106,-6.549076 -1.887881,-0.0026 9.51e-4,1.751916 c 0,0 -0.657683,-1.055064 -1.617478,-1.55765 0,0 -0.959796,-0.502586 -2.351194,-0.506855 0,0 -1.76139,-0.0022 -2.80485,0.997005 0,0 -1.0402674,0.98977 -1.0485034,2.64362 0,0 0.0036,1.93217 1.2938904,2.92593 0,0 1.293524,0.98428 3.858148,0.98266 l 2.656301,0.008 -5.82e-4,0.18973 c 0,0 -0.004,1.29653 -0.866305,2.00857 0,0 -0.859136,0.70255 -2.399168,0.70099 0,0 -0.992969,0.003 -1.915632,-0.23356 0,0 -0.93214,-0.24003 -1.787691,-0.70751 l -0.0085,1.74872 c 0,0 1.029714,0.38896 2.003051,0.60065 0,0 0.986005,0.20541 1.903062,0.20823 0,0 2.479233,0.001 3.716492,-1.29147 0,0 1.240451,-1.30222 1.24531,-3.91742 z m -5.536955,10.23833 1.331342,-0.005 2.193794,-3.85127 -1.24595,0.002 -1.604654,2.5091 -1.598709,-2.52209 -1.255428,-6.8e-4 2.179605,3.86784 z"
     id="path28"
     inkscape:connector-curvature="0"><title
       id="title30">â</title></path><path
     style="fill:#000000;fill-opacity:1;fill-rule:nonzero;stroke:none"
     d="m 42.23632,104.64227 c 0,0 -2.293399,-0.004 -3.177223,-0.52398 0,0 -0.873972,-0.51795 -0.877536,-1.77731 0,0 0.0027,-1.00448 0.664862,-1.59951 0,0 0.671997,-0.59332 1.807986,-0.58796 0,0 1.563489,-0.001 2.515077,1.11901 0,0 0.953308,1.11041 0.944108,2.96646 l 1.96e-4,0.40608 -1.87747,-0.003 z m 3.77034,0.7899 0.0055,-6.546517 -1.887321,-0.0045 -1.41e-4,1.745967 c 0,0 -0.659492,-1.048985 -1.617431,-1.551134 0,0 -0.957938,-0.502149 -2.348801,-0.501231 0,0 -1.765669,-0.0036 -2.802425,0.993034 0,0 -1.044888,0.985041 -1.04926,2.638911 0,0 -0.0033,1.9383 1.296237,2.92639 0,0 1.289635,0.98638 3.85761,0.98785 l 2.658355,0.007 -0.0031,0.19233 c 0,0 -0.0016,1.28891 -0.866845,2.00077 0,0 -0.855401,0.71357 -2.40732,0.70669 0,0 -0.984784,7.2e-4 -1.908609,-0.23155 0,0 -0.931956,-0.24383 -1.794822,-0.70909 l -1.41e-4,1.74597 c 0,0 1.027823,0.39253 2.00606,0.60384 0,0 0.979957,0.20145 1.903915,0.20027 0,0 2.475877,0.006 3.717128,-1.29022 0,0 1.241251,-1.29591 1.241463,-3.91486 z m -6.22168,10.23279 2.899563,-3.81839 -1.561771,-0.009 -3.358335,3.8297 2.020543,-0.003 z"
     id="path32"
     inkscape:connector-curvature="0"><title
       id="title34">à</title></path><path
     style="fill:#000000;fill-opacity:1;fill-rule:nonzero;stroke:none"
     d="m 28.494624,105.17342 c 0,0 -2.298686,0.006 -3.181837,-0.50071 0,0 -0.881352,-0.51703 -0.882674,-1.78801 0,0 -0.01056,-0.99819 0.656422,-1.5878 0,0 0.658943,-0.60124 1.79845,-0.60628 0,0 1.565246,0.002 2.521095,1.11179 0,0 0.957647,1.10028 0.962809,2.96158 l -0.0031,0.40607 -1.871146,0.003 z m 3.762927,0.76967 -0.01357,-6.53918 -1.89082,-2.37e-4 0.0053,1.749507 c 0,0 -0.662544,-1.0463 -1.619951,-1.536574 0,0 -0.965444,-0.501914 -2.348231,-0.500712 0,0 -1.770979,0.01152 -2.805998,1.001436 0,0 -1.035019,0.98992 -1.033217,2.64729 0,0 6.03e-4,1.94181 1.305417,2.9226 0,0 1.294977,0.979 3.856617,0.97996 l 2.655569,-0.0124 0.0052,0.19409 c 0,0 -0.0023,1.29066 -0.855436,2.00886 0,0 -0.861196,0.70657 -2.406769,0.7085 0,0 -0.986557,0.003 -1.910254,-0.22745 0,0 -0.933534,-0.23176 -1.794373,-0.69421 l 0.0053,1.74951 c 0,0 1.028184,0.38123 2.006463,0.59068 0,0 0.980079,0.19962 1.905816,0.19614 0,0 2.481146,-0.004 3.715059,-1.30278 0,0 1.224077,-1.30098 1.217954,-3.93507 z m -4.87195,7.51602 -0.673218,0.56813 c 0,0 -0.239921,0.2001 -0.442175,0.30542 0,0 -0.190617,0.0973 -0.343567,0.0998 0,0 -0.447213,-4.8e-4 -0.653426,-0.37367 0,0 -0.21605,-0.375 -0.245561,-1.214 l -1.453444,-0.002 c 0,0 0.01908,1.39622 0.625599,2.13745 0,0 0.604722,0.75108 1.661936,0.75131 0,0 0.437376,-0.001 0.809614,-0.14671 0,0 0.382074,-0.14359 0.800137,-0.48392 l 0.673218,-0.56813 c 0,0 0.249758,-0.1983 0.442175,-0.30542 0,0 0.190617,-0.0973 0.353404,-0.098 0,0 0.437376,-0.001 0.643589,0.37187 0,0 0.21605,0.375 0.245562,1.214 l 1.453443,0.002 c 0,0 -0.02268,-1.37654 -0.615762,-2.13565 0,0 -0.604723,-0.75108 -1.671773,-0.75311 0,0 -0.437376,0.001 -0.809614,0.14671 0,0 -0.382074,0.14359 -0.800137,0.48392 z"
     id="path36"
     inkscape:connector-curvature="0"><title
       id="title38">ã</title></path><path
     style="fill:#000000;fill-opacity:1;fill-rule:nonzero;stroke:none"
     d="m 15.745125,77.08058 c 0,0 -2.298684,-0.0071 -3.178815,-0.519551 0,0 -0.878274,-0.52224 -0.88375,-1.78524 0,0 0.0052,-0.996381 0.667674,-1.59371 0,0 0.672318,-0.595473 1.811834,-0.593763 0,0 1.555384,0.0091 2.516323,1.11688 0,0 0.949255,1.115756 0.945249,2.967239 l -0.0055,0.40604 -1.872991,0.0021 z m 3.768129,0.793795 0.0074,-6.552682 -1.892643,-0.0016 -0.0051,1.749506 c 0,0 -0.646509,-1.048344 -1.608963,-1.555968 0,0 -0.964311,-0.497798 -2.348939,-0.494962 0,0 -1.769159,-0.0088 -2.811881,0.984798 0,0 -1.0408641,0.983769 -1.0390538,2.642984 0,0 -0.010897,1.941773 1.2899388,2.920455 0,0 1.298981,0.988508 3.862428,0.994812 l 2.655596,0.0034 -0.0058,0.192265 c 0,0 -1.17e-4,1.292479 -0.857495,2.005618 0,0 -0.867225,0.711281 -2.412782,0.704048 0,0 -0.986554,-0.0033 -1.908874,-0.238753 0,0 -0.932144,-0.237289 -1.790228,-0.704828 l -0.0051,1.749507 c 0,0 1.033876,0.399001 2.002929,0.602559 0,0 0.978879,0.205415 1.90462,0.207418 0,0 2.482982,0.0013 3.714743,-1.292433 0,0 1.241588,-1.291844 1.249212,-3.916104 z"
     id="path40"
     inkscape:connector-curvature="0"><title
       id="title42">a</title></path><path
     style="fill:#000000;fill-opacity:1;fill-rule:nonzero;stroke:none"
     d="m 61.499149,81.278455 0.005,6.225021 1.89128,-0.0074 -0.013,-15.952838 -1.89128,0.0074 5e-5,1.711432 c 0,0 -0.59211,-1.016616 -1.50305,-1.509741 0,0 -0.90137,-0.503527 -2.17235,-0.501501 0,0 -2.07154,0.0048 -3.38448,1.669935 0,0 -1.31295,1.665138 -1.31234,4.367377 0,0 6.1e-4,2.70224 1.31997,4.369633 0,0 1.30896,1.65781 3.3909,1.662595 0,0 1.26099,-0.0016 2.17097,-0.50929 0,0 0.91039,-0.497682 1.49852,-1.532623 z m -6.42872,-3.990199 c 0,0 0.005,-2.081941 0.85696,-3.267816 0,0 0.84218,-1.185466 2.34338,-1.186915 0,0 1.5012,-0.0014 2.36046,1.184372 0,0 0.85926,1.185822 0.86446,3.267353 0,0 0.005,2.07154 -0.85736,3.257825 0,0 -0.86176,1.196276 -2.35297,1.197316 0,0 -1.50119,0.0014 -2.36045,-1.184373 0,0 -0.84968,-1.196223 -0.85448,-3.267762 z"
     id="path44"
     inkscape:connector-curvature="0"><title
       id="title46">d</title></path><path
     style="fill:#000000;fill-opacity:1;fill-rule:nonzero;stroke:none"
     d="m 250.80185,74.789293 0.002,-6.096425 -1.89613,-1.37e-4 -0.001,15.863068 1.88806,-0.0058 0.002,-1.746138 c 0,0 0.6099,1.029036 1.51777,1.532601 0,0 0.8998,0.497659 2.15188,0.497222 0,0 2.09611,-0.0022 3.41302,-1.665465 0,0 1.30293,-1.661133 1.31373,-4.367438 0,0 -0.003,-2.704143 -1.31837,-4.361088 0,0 -1.30929,-1.665014 -3.3995,-1.670914 0,0 -1.25208,4.37e-4 -2.16239,0.498966 0,0 -0.90224,0.504437 -1.51055,1.521519 z m 6.41673,4.01628 c 0,0 0.006,2.07407 -0.8544,3.266069 0,0 -0.8544,1.18393 -2.35056,1.179181 0,0 -1.50206,0.0033 -2.35777,-1.180893 0,0 -0.86378,-1.190119 -0.85572,-3.26635 0,0 -1e-5,-2.082138 0.8544,-3.266069 0,0 0.86031,-1.191999 2.35647,-1.18725 0,0 1.50206,-0.0033 2.35186,1.188961 0,0 0.85571,1.184213 0.85572,3.266351 z"
     inkscape:connector-curvature="0"
     id="path29"><title
       id="title31">p</title></path><path
     style="fill:#000000;fill-opacity:1;fill-rule:nonzero;stroke:none"
     d="m 176.88292,48.56258 2.06461,0.0011 -0.01,-13.564723 7.47261,-0.0058 -0.005,-1.7445 -9.52758,0.0074 0.005,15.306553 z"
     id="path48"
     inkscape:connector-curvature="0"><title
       id="title50">L</title></path><path
     style="fill:#000000;fill-opacity:1;fill-rule:nonzero;stroke:none"
     d="m 93.88108,105.28603 -0.0039,-0.9176 -8.669285,0.0225 c 0,0 0.122493,-1.9578 1.168958,-2.97967 0,0 1.059298,-1.0278 2.926102,-1.03461 0,0 1.085026,0.004 2.108574,0.26309 0,0 1.023547,0.25875 2.025655,0.80791 l -0.01217,-1.794201 c 0,0 -1.015319,-0.426173 -2.074878,-0.644882 0,0 -1.065499,-0.231543 -2.176194,-0.22401 0,0 -2.730571,0.0091 -4.332543,1.615323 0,0 -1.611358,1.60273 -1.598756,4.32391 0,0 0.0063,2.8254 1.528557,4.48178 0,0 1.525717,1.64699 4.104185,1.64589 0,0 2.325602,-0.009 3.67433,-1.50552 0,0 1.335893,-1.49084 1.331345,-4.05992 z m -1.877117,0.55699 c 0,0 -0.02463,1.54631 -0.865738,2.47315 0,0 -0.837664,0.91745 -2.236281,0.92577 0,0 -1.575434,-0.003 -2.529477,-0.88643 0,0 -0.950597,-0.89245 -1.100874,-2.51365 l 6.73237,0.001 z m -5.125156,10.03849 2.877864,-3.8328 -1.566045,8e-5 -3.327276,3.8382 2.015457,-0.005 z"
     id="path52"
     inkscape:connector-curvature="0"><title
       id="title54">è</title></path><path
     style="fill:#000000;fill-opacity:1;fill-rule:nonzero;stroke:none"
     d="m 81.279945,105.60419 -0.0048,-0.92048 -8.667049,-0.0194 c 0,0 0.125857,-1.94621 1.187662,-2.96746 0,0 1.051825,-1.02087 2.933124,-1.02264 0,0 1.071138,0.009 2.101832,0.27002 0,0 1.021092,0.27124 2.012895,0.82381 l 0.01132,-1.80174 c 0,0 -1.016815,-0.421517 -2.076353,-0.651265 0,0 -1.069528,-0.229367 -2.180625,-0.236987 0,0 -2.731827,0.0042 -4.342255,1.596812 0,0 -1.610029,1.60258 -1.616569,4.3148 0,0 -0.01198,2.83253 1.512599,4.49558 0,0 1.524163,1.65305 4.096105,1.65495 0,0 2.33212,0.0111 3.676169,-1.48132 0,0 1.34405,-1.49236 1.356313,-4.05469 z m -1.880687,0.54214 c 0,0 -0.03083,1.5523 -0.876205,2.47522 0,0 -0.845793,0.91294 -2.236691,0.91599 0,0 -1.581519,-0.01 -2.535942,-0.89391 0,0 -0.944823,-0.89461 -1.086943,-2.52037 l 6.735781,0.0231 z m -2.26888,10.03386 2.051562,0.001 -3.339885,-3.86541 -1.58114,3.1e-4 2.869463,3.86336 z"
     id="path56"
     inkscape:connector-curvature="0"><title
       id="title58">é</title></path><path
     style="fill:#000000;fill-opacity:1;fill-rule:nonzero;stroke:none"
     d="m 109.34334,105.87549 -0.003,-0.91761 -8.67041,0.008 c 0,0 0.12321,-1.94761 1.17029,-2.97101 0,0 1.05643,-1.02691 2.9326,-1.03709 0,0 1.07912,7e-4 2.09866,0.26945 0,0 1.02891,0.26523 2.024,0.81021 l -7.9e-4,-1.79424 c 0,0 -1.01259,-0.420907 -2.08127,-0.649842 0,0 -1.05581,-0.223088 -2.16653,-0.222604 0,0 -2.73408,0.0012 -4.34153,1.608866 0,0 -1.610955,1.59831 -1.603916,4.31952 0,0 0.0047,2.82888 1.522316,4.48084 0,0 1.53045,1.65781 4.11238,1.64966 0,0 2.32912,0.001 3.66858,-1.49505 0,0 1.33947,-1.49636 1.33836,-4.05957 z m -1.87476,0.55442 c 0,0 -0.0274,1.54846 -0.87908,2.46644 0,0 -0.83878,0.92382 -2.22454,0.93144 0,0 -1.5824,-0.004 -2.53668,-0.89542 0,0 -0.95075,-0.88208 -1.09074,-2.50655 l 6.73104,0.004 z m -2.69147,9.16081 2.08216,-0.002 -0.0114,-2.07864 -2.07279,-0.001 0.002,2.08216 z m -4.01568,0.002 2.08216,-0.002 -0.0114,-2.07864 -2.0728,-0.001 0.002,2.08216 z"
     id="path64"
     inkscape:connector-curvature="0"><title
       id="title66">ë</title></path><path
     style="fill:#000000;fill-opacity:1;fill-rule:nonzero;stroke:none"
     d="m 125.23699,105.59498 7.2e-4,-0.92021 -8.67163,-0.0253 c 0,0 0.13412,-1.95747 1.19728,-2.97379 0,0 1.05338,-1.02653 2.93358,-1.01419 0,0 1.07018,0.004 2.09452,0.26724 0,0 1.0241,0.27314 2.02191,0.82575 l 0.0105,-1.800221 c 0,0 -1.02073,-0.423095 -2.07573,-0.656914 0,0 -1.06522,-0.224047 -2.17539,-0.229051 0,0 -2.73044,-0.0115 -4.34674,1.582506 0,0 -1.61631,1.59401 -1.62758,4.31444 0,0 -0.004,2.83063 1.50914,4.49513 0,0 1.52312,1.65472 4.0936,1.66261 0,0 2.33031,0.0125 3.68421,-1.4774 0,0 1.34389,-1.49011 1.35156,-4.05059 z m -1.87259,0.53797 c 0,0 -0.0349,1.5496 -0.88587,2.47067 0,0 -0.85096,0.92107 -2.23106,0.90999 0,0 -1.58028,-0.006 -2.53044,-0.89722 0,0 -0.95016,-0.89162 -1.09363,-2.51527 l 6.741,0.0318 z m -4.17669,10.01847 1.55028,0.005 2.6072,-3.84225 -1.47008,-0.0131 -1.89696,2.50791 -1.90388,-2.51352 -1.47008,-0.0131 2.58352,3.86917 z"
     id="path68"
     inkscape:connector-curvature="0"><title
       id="title70">ê</title></path><path
     style="fill:#000000;fill-opacity:1;fill-rule:nonzero;stroke:none"
     d="m 79.424006,77.807887 -0.004,-0.922271 -8.667356,-0.01233 c 0,0 0.121113,-1.955487 1.1867,-2.979705 0,0 1.055714,-1.0258 2.928294,-1.01926 0,0 1.073546,-4e-5 2.102763,0.276386 0,0 1.020926,0.26497 2.017272,0.809576 l 0.0037,-1.792007 c 0,0 -1.015344,-0.426119 -2.072225,-0.656343 0,0 -1.066755,-0.231807 -2.171505,-0.22664 0,0 -2.732442,-0.01275 -4.346842,1.591903 0,0 -1.612818,1.594778 -1.623983,4.317345 0,0 0.0026,2.826057 1.518785,4.487036 0,0 1.516162,1.660979 4.098912,1.659854 0,0 2.327988,0.0087 3.671794,-1.487457 0,0 1.352098,-1.484665 1.357681,-4.046085 z m -1.87908,0.539314 c 0,0 -0.03641,1.553826 -0.882401,2.471471 0,0 -0.845946,0.917646 -2.233497,0.91798 0,0 -1.578323,-0.01 -2.529132,-0.901774 0,0 -0.950809,-0.891774 -1.085752,-2.513591 l 6.730782,0.02591 z"
     id="path72"
     inkscape:connector-curvature="0"><title
       id="title74">e</title></path><path
     style="fill:#000000;fill-opacity:1;fill-rule:nonzero;stroke:none"
     d="m 113.56852,48.033842 2.06285,-0.0053 0.004,-6.276942 7.53475,9.49e-4 -0.005,6.286881 2.08164,0.0068 0.009,-15.320195 -2.08274,0.0031 -0.005,7.292912 -7.52373,-0.0098 0.005,-7.292912 -2.06176,-0.0047 -0.0192,15.319106 z"
     id="path76"
     inkscape:connector-curvature="0"><title
       id="title78">H</title></path><path
     style="fill:#000000;fill-opacity:1;fill-rule:nonzero;stroke:none"
     d="m 68.608007,47.978757 9.679813,0.01063 -0.0064,-1.755124 -7.602209,-0.0027 -0.0042,-4.531631 7.304925,0.0074 -0.0034,-1.732971 -7.295456,-0.0042 0.0012,-5.543546 7.801413,0.0069 -0.0064,-1.755124 -9.860077,-0.0084 -0.0091,15.308756 z"
     id="path80"
     inkscape:connector-curvature="0"><title
       id="title82">E</title></path><path
     style="fill:#000000;fill-opacity:1;fill-rule:nonzero;stroke:none"
     d="m 394.04883,83.533168 -4.16,-5.59 4.36,-5.89 -2.21,0 -3.35,4.51 -3.34,-4.51 -2.22,0 4.45,6.01 -4.08,5.47 2.22,0 3.05,-4.09 3.05,4.09 2.23,0 z"
     id="path84"
     inkscape:connector-curvature="0"><title
       id="title86">x</title></path><path
     style="fill:#000000;fill-opacity:1;fill-rule:nonzero;stroke:none"
     d="m 316.05161,105.83023 0.003,6.96232 1.88956,-0.009 -0.002,-6.87177 c 0,0 -0.003,-1.63783 0.62771,-2.45114 0,0 0.64077,-0.81235 1.91643,-0.81013 0,0 1.51742,-0.005 2.40765,0.97514 0,0 0.89119,0.96984 0.89046,2.64749 l 0.006,6.51055 1.8886,9.3e-4 7e-5,-11.48281 -1.8886,-9.3e-4 -0.009,1.76723 c 0,0 -0.68252,-1.05022 -1.58887,-1.54934 0,0 -0.9054,-0.50908 -2.11042,-0.51455 0,0 -1.98909,-5.6e-4 -3.01141,1.22715 0,0 -1.02232,1.2277 -1.01947,3.59888 z m 5.73503,11.39183 2.07964,-7.7e-4 -7.7e-4,-2.07964 -2.07964,7.7e-4 7.7e-4,2.07964 z m -3.91847,0.005 2.06969,-0.002 0.009,-2.07868 -2.07964,7.7e-4 7.7e-4,2.07964 z"
     id="path88"
     inkscape:connector-curvature="0"><title
       id="title90">ü</title></path><path
     style="fill:#000000;fill-opacity:1;fill-rule:nonzero;stroke:none"
     d="m 330.07231,105.22781 0.0175,6.95506 1.88986,-0.006 -0.0115,-6.86926 c 0,0 -0.008,-1.64147 0.62971,-2.4548 0,0 0.62387,-0.81467 1.90937,-0.81394 0,0 1.51343,-0.006 2.4088,0.96628 0,0 0.88766,0.9788 0.89325,2.64843 l 0.0165,6.51462 1.88986,-0.006 -0.0232,-11.47994 -1.88986,0.006 0.004,1.76181 c 0,0 -0.69665,-1.04598 -1.59368,-1.5498 0,0 -0.91111,-0.50514 -2.11851,-0.50559 0,0 -1.98204,0.005 -3.00047,1.23642 0,0 -1.02481,1.22425 -1.02172,3.59679 z m 4.18298,12.25654 1.31366,0.003 2.14812,-3.86679 -1.2151,0.006 -1.59403,2.51284 -1.5954,-2.50881 -1.22147,-0.002 2.16422,3.85523 z"
     id="path92"
     inkscape:connector-curvature="0"><title
       id="title94">û</title></path><path
     style="fill:#000000;fill-opacity:1;fill-rule:nonzero;stroke:none"
     d="m 220.89674,76.955679 0.006,-6.945643 -1.89129,0.0046 0.001,6.875303 c 0,0 -0.006,1.621502 -0.64439,2.437307 0,0 -0.62872,0.805419 -1.9097,0.805932 0,0 -1.53118,4.23e-4 -2.41035,-0.97571 0,0 -0.88916,-0.975696 -0.88586,-2.667142 l 0.004,-6.485213 -1.89129,0.0046 -0.007,11.479218 1.89169,0.0054 2e-5,-1.781376 c 0,0 0.69129,1.033543 1.60229,1.54802 0,0 0.911,0.514477 2.11203,0.517118 0,0 1.99161,0.0014 3.00386,-1.229408 0,0 1.02264,-1.221275 1.01912,-3.592982 z"
     id="path96"
     inkscape:connector-curvature="0"><title
       id="title98">n</title></path><path
     style="fill:#000000;fill-opacity:1;fill-rule:nonzero;stroke:none"
     d="m 330.62482,77.413376 -7.8e-4,6.955933 1.89391,-0.003 -0.002,-6.875353 c 0,0 0.007,-1.639161 0.63224,-2.45118 0,0 0.63495,-0.810451 1.92061,-0.808808 0,0 1.5092,-0.0034 2.40617,0.979468 0,0 0.88865,0.971385 0.88668,2.641742 l -0.003,6.520276 1.89391,-0.003 6e-4,-11.481967 -1.89234,-0.0069 0.002,1.772257 c 0,0 -0.68377,-1.050226 -1.59519,-1.55946 0,0 -0.90153,-0.507667 -2.10661,-0.506641 0,0 -1.98436,-0.0012 -3.00906,1.223238 0,0 -1.02471,1.224451 -1.02783,3.603398 z"
     id="path100"
     inkscape:connector-curvature="0"><title
       id="title102">u</title></path><path
     style="fill:#000000;fill-opacity:1;fill-rule:nonzero;stroke:none"
     d="m 124.38382,78.364887 -0.006,-6.93297 -1.88282,-0.0015 0.007,6.872157 c 0,0 -0.004,1.627877 -0.63742,2.443972 0,0 -0.6316,0.806271 -1.91426,0.806849 0,0 -1.52777,0.0049 -2.41184,-0.967217 0,0 -0.88221,-0.981941 -0.88858,-2.662673 l 3.4e-4,-6.483902 -1.89264,-0.0034 0.0123,15.952707 1.89264,0.0034 -0.0131,-6.252346 c 0,0 0.69044,1.026934 1.6094,1.547627 0,0 0.911,0.509002 2.11132,0.513138 0,0 1.98666,-0.0093 3.0026,-1.231149 0,0 1.0178,-1.231657 1.01065,-3.604703 z"
     id="path104"
     inkscape:connector-curvature="0"><title
       id="title106">h</title></path><path
     style="fill:#000000;fill-opacity:1;fill-rule:nonzero;stroke:none"
     d="m 425.72706,82.838623 8.97,0 0,-1.72 -7.1,-8.269998 7.1,0 0,-1.5 -9.22,0 0,1.72 7.09,8.269998 -6.84,0 0,1.5 z"
     id="path108"
     inkscape:connector-curvature="0"><title
       id="title110">z</title></path><path
     style="fill:#000000;fill-opacity:1;fill-rule:nonzero;stroke:none"
     d="m 83.471949,47.501319 8.79702,0.0016 -5.9e-4,-1.751456 -6.73417,0.0033 0.005,-4.518869 6.07928,0.0022 -0.003,-1.731587 -6.07929,-0.0022 0.0131,-7.316087 -2.06286,-0.0049 -0.0142,15.317999 z"
     id="path112"
     inkscape:connector-curvature="0"><title
       id="title114">F</title></path><path
     style="fill:#000000;fill-opacity:1;fill-rule:nonzero;stroke:none"
     d="m 211.82957,48.522323 2.78871,5.1e-5 6.79392,-12.810856 0.004,12.807861 2.00125,0.0023 -0.008,-15.312353 -2.77462,-0.0012 -6.78628,12.817311 0.003,-12.815499 -2.01534,-0.0011 -0.006,15.313536 z"
     id="path116"
     inkscape:connector-curvature="0"><title
       id="title118">N</title></path><path
     style="fill:#000000;fill-opacity:1;fill-rule:nonzero;stroke:none"
     d="m 138.37979,110.52031 1.87601,-0.003 0.002,-11.485314 -1.87601,0.0026 -0.002,11.485314 z m 1.87691,4.44118 2.07696,-0.007 -0.007,-2.07696 -2.07617,-0.003 0.006,2.08692 z m -3.96214,-0.001 2.08692,-0.006 -0.007,-2.07696 -2.07617,-0.003 -0.004,2.08614 z"
     id="path120"
     inkscape:connector-curvature="0"><title
       id="title122">ï</title></path><path
     style="fill:#000000;fill-opacity:1;fill-rule:nonzero;stroke:none"
     d="m 133.03365,81.703895 1.87779,0.0019 3.5e-4,-11.487811 -1.87779,-0.0019 -3.5e-4,11.487811 z m 0.004,4.473933 1.86816,-7.26e-4 6.3e-4,-2.397019 -1.86815,7.26e-4 -6.4e-4,2.397019 z"
     id="path124"
     inkscape:connector-curvature="0"><title
       id="title126">i</title></path><path
     style="fill:#000000;fill-opacity:1;fill-rule:nonzero;stroke:none"
     d="m 177.60096,87.279887 1.88282,-0.0029 0.002,-15.953244 -1.87299,0.0047 -0.012,15.9514 z"
     id="path128"
     inkscape:connector-curvature="0"><title
       id="title130">l</title></path><path
     style="fill:#000000;fill-opacity:1;fill-rule:nonzero;stroke:none"
     d="m 132.85334,48.59086 2.05905,3.68e-4 0.001,-15.305335 -2.06848,-0.0038 0.008,15.308688 z"
     id="path132"
     inkscape:connector-curvature="0"><title
       id="title134">I</title></path><path
     style="fill:#000000;fill-opacity:1;fill-rule:nonzero;stroke:none"
     d="m 27.813728,139.30558 5.515254,-0.008 -0.0017,-1.69047 -5.515254,0.008 0.0017,1.69047 z"
     id="path136"
     inkscape:connector-curvature="0"><title
       id="title138">-</title></path><path
     style="fill:#000000;fill-opacity:1;fill-rule:nonzero;stroke:none"
     d="m 86.608234,146.37951 0.0035,-5.68898 -1.751912,-0.002 0.006,5.69219 1.74244,-9.8e-4 z"
     id="path140"
     inkscape:connector-curvature="0"><title
       id="title142">'</title></path><path
     style="fill:#000000;fill-opacity:1;fill-rule:nonzero;stroke:none"
     d="m 14.574326,131.1255 2.152321,0.002 0.001,-2.61276 -2.161856,0.009 0.0084,2.60232 z"
     id="path144"
     inkscape:connector-curvature="0"><title
       id="title146">.</title></path><path
     style="fill:#000000;fill-opacity:1;fill-rule:nonzero;stroke:none"
     d="m 136.69635,4.8752303 0.013,1.8827722 c 0,0 0.78187,-0.3777284 1.57092,-0.5632367 0,0 0.79692,-0.1972479 1.55985,-0.204381 0,0 2.04748,-0.00459 3.14095,1.3602913 0,0 1.0954,1.3746978 1.26991,4.1837099 0,0 -0.60288,-0.890524 -1.51909,-1.352649 0,0 -0.91621,-0.4621238 -2.02625,-0.458168 0,0 -2.29069,0.011586 -3.62721,1.405221 0,0 -1.32478,1.40152 -1.30969,3.813816 0,0 0.0133,2.351494 1.41449,3.778253 0,0 1.38943,1.418874 3.70167,1.413247 0,0 2.65551,-0.02208 4.05708,-2.070514 0,0 1.39175,-2.046512 1.37589,-5.915963 0,0 -0.0187,-3.6243136 -1.75464,-5.7700355 0,0 -1.72616,-2.1476492 -4.63854,-2.1362802 0,0 -0.77274,0.009 -1.57737,0.167058 0,0 -0.79482,0.156071 -1.65098,0.466859 z m 4.14482,6.4726647 c 0,0 1.40424,-0.01077 2.22264,0.939344 0,0 0.81841,0.950114 0.82828,2.609302 0,0 0.008,1.649374 -0.79954,2.62321 0,0 -0.80942,0.964023 -2.21559,0.96498 0,0 -1.38461,0.0069 -2.20301,-0.943198 0,0 -0.82033,-0.959926 -0.83021,-2.619114 0,0 -0.008,-1.649375 0.80147,-2.613397 0,0 0.80154,-0.952284 2.19596,-0.961127 z"
     id="path148"
     inkscape:connector-curvature="0"><title
       id="title150">9</title></path><path
     style="fill:#000000;fill-opacity:1;fill-rule:nonzero;stroke:none"
     d="m 107.1588,34.361558 -0.004,4.110861 -3.39704,-0.01184 0.002,1.710204 5.43281,0.01033 0.0141,-6.582158 c 0,0 -1.20321,-0.848516 -2.6473,-1.28463 0,0 -1.44409,-0.436113 -3.0818,-0.4407 0,0 -3.581334,-0.006 -5.615082,2.082268 0,0 -2.033748,2.08827 -2.041882,5.842219 0,0 -0.0063,3.744123 2.017992,5.84718 0,0 2.032233,2.114741 5.603742,2.118883 0,0 1.50625,6.7e-5 2.85956,-0.374843 0,0 1.35145,-0.365084 2.49525,-1.084965 l 6.3e-4,-2.208393 c 0,0 -1.16453,0.990751 -2.448,1.480651 0,0 -1.29329,0.488041 -2.71722,0.483198 0,0 -2.80856,-0.0022 -4.219407,-1.582127 0,0 -1.412707,-1.570051 -1.403805,-4.682674 0,0 0.0052,-3.092971 1.420686,-4.657054 0,0 1.417356,-1.573908 4.233886,-1.559973 0,0 1.08853,0.0024 1.94946,0.185713 0,0 0.85908,0.1931 1.5458,0.597843 z"
     id="path152"
     inkscape:connector-curvature="0"><title
       id="title154">G</title></path><path
     style="fill:#000000;fill-opacity:1;fill-rule:nonzero;stroke:none"
     d="m 237.7968,109.17809 c 0,0 -1.51342,-0.007 -2.40392,-1.18764 0,0 -0.88079,-1.17844 -0.88146,-3.23999 0,0 -6.7e-4,-2.06155 0.88419,-3.25269 0,0 0.88245,-1.18144 2.39829,-1.18436 0,0 1.51585,-0.003 2.4015,1.19734 0,0 0.88564,1.20026 0.88146,3.23999 0,0 -0.002,2.03002 -0.87935,3.23329 0,0 -0.88486,1.19114 -2.40071,1.19406 z m 5.3e-4,1.60801 c 0,0 2.46416,-0.003 3.87277,-1.59958 0,0 1.41103,-1.60604 1.40526,-4.43158 0,0 0.006,-2.83282 -1.39846,-4.43067 0,0 -1.4145,-1.600274 -3.87624,-1.606744 0,0 -2.47387,8.1e-4 -3.87277,1.599574 0,0 -1.40133,1.60847 -1.39556,4.43401 0,0 -0.004,2.82311 1.39845,4.43067 0,0 1.39268,1.60513 3.86655,1.60432 z m -0.75022,5.02801 1.51585,-0.003 2.50898,-3.85714 -1.42368,0.005 -1.84245,2.50842 -1.85622,-2.51449 -1.42126,-0.004 2.51878,3.8652 z"
     id="path156"
     inkscape:connector-curvature="0"><title
       id="title158">ô</title></path><path
     style="fill:#000000;fill-opacity:1;fill-rule:nonzero;stroke:none"
     d="m 237.73079,136.00108 c 0,0 -2.2602,-0.002 -3.58921,-1.67941 0,0 -1.3351,-1.6855 -1.32733,-4.59382 0,0 -0.002,-2.8882 1.32918,-4.56892 0,0 1.33116,-1.68071 3.59136,-1.67887 0,0 2.25227,0.008 3.56725,1.68369 0,0 1.32901,1.67757 1.32306,4.57187 0,0 1.6e-4,2.90222 -1.31698,4.58476 0,0 -1.32324,1.67462 -3.57733,1.6807 z m 10e-4,1.69012 c 0,0 3.21622,-0.002 5.14538,-2.16828 0,0 1.92124,-2.1601 1.91601,-5.79032 0,0 8.7e-4,-3.62229 -1.91419,-5.7826 0,0 -1.92299,-2.15421 -5.13922,-2.15214 0,0 -3.23634,-0.008 -5.1716,2.1506 0,0 -1.93526,2.15828 -1.94406,5.78667 0,0 -8.7e-4,3.6223 1.94224,5.78625 0,0 1.92909,2.16214 5.16544,2.16982 z m -0.96536,4.07434 1.8901,-0.004 2.13814,-2.73085 -1.40416,-0.005 -1.67134,1.82896 -1.68695,-1.83112 -1.41209,0.002 2.1463,2.73947 z"
     id="path160"
     inkscape:connector-curvature="0"><title
       id="title162">Ô</title></path><path
     style="fill:#000000;fill-opacity:1;fill-rule:nonzero;stroke:none"
     d="m 34.540835,76.267681 c 0,0 -0.002,2.076944 -0.85056,3.257998 0,0 -0.86001,1.188987 -2.35643,1.186348 0,0 -1.50625,-0.0045 -2.35833,-1.186708 0,0 -0.86002,-1.193891 -0.85776,-3.270834 0,0 0.002,-2.076944 0.86227,-3.26593 0,0 0.86982,-1.187098 2.36625,-1.18446 0,0 1.49643,0.0026 2.34662,1.194641 0,0 0.8502,1.192001 0.84794,3.268945 z m -6.42873,3.987725 c 0,0 0.60583,1.032993 1.51758,1.53419 0,0 0.90194,0.49931 2.15324,0.505726 0,0 2.09847,-0.0038 3.40605,-1.666779 0,0 1.31739,-1.661106 1.31701,-4.359735 0,0 0.0113,-2.706561 -1.2974,-4.373702 0,0 -1.30872,-1.66714 -3.40719,-1.663356 0,0 -1.25131,-0.0064 -2.16155,0.490633 0,0 -0.90042,0.498938 -1.51455,1.521361 l 0.005,-1.720023 -1.89263,-0.0075 -0.023,15.952695 1.89263,0.0076 0.005,-6.22101 z"
     id="path164"
     inkscape:connector-curvature="0"><title
       id="title166">b</title></path><path
     style="fill:#000000;fill-opacity:1;fill-rule:nonzero;stroke:none"
     d="m 237.43024,81.793674 c 0,0 -1.51742,0.0026 -2.39683,-1.178464 0,0 -0.8794,-1.181035 -0.87831,-3.25072 0,0 1.3e-4,-2.059733 0.8899,-3.248907 0,0 0.87883,-1.180194 2.39626,-1.182766 0,0 1.51645,0.0074 2.39489,1.198369 0,0 0.87747,1.200941 0.87927,3.240767 0,0 0.002,2.039828 -0.88794,3.229002 0,0 -0.88077,1.2001 -2.39724,1.192719 z m -0.006,1.607005 c 0,0 2.47072,0.01008 3.88289,-1.590246 0,0 1.40224,-1.601331 1.40751,-4.434222 0,0 0.004,-2.822938 -1.39649,-4.426634 0,0 -1.41076,-1.604669 -3.87248,-1.603857 0,0 -2.47072,-0.01008 -3.87294,1.591217 0,0 -1.40223,1.601331 -1.40654,4.424269 0,0 -0.005,2.832891 1.39552,4.436588 0,0 1.40081,1.603697 3.86253,1.602885 z"
     id="path168"
     inkscape:connector-curvature="0"><title
       id="title170">o</title></path><path
     style="fill:#000000;fill-opacity:1;fill-rule:nonzero;stroke:none"
     d="m 106.85321,76.352426 c 0,0 0,2.05 -0.85,3.18 0,0 -0.84,1.14 -2.37,1.14 0,0 -1.52,0 -2.36,-1.14 0,0 -0.85,-1.13 -0.85,-3.18 0,0 0,-2.04 0.85,-3.17 0,0 0.84,-1.12 2.36,-1.12 0,0 1.53,0 2.37,1.12 0,0 0.85,1.13 0.85,3.17 z m 1.89,-4.45 c 0,0 0,-2.92 -1.31,-4.36 0,0 -1.3,-1.439999 -3.99,-1.439999 0,0 -0.98,0 -1.87,0.15 0,0 -0.88,0.15 -1.710002,0.459999 l 0,1.85 c 0,0 0.830002,-0.46 1.640002,-0.68 0,0 0.81,-0.21 1.64,-0.21 0,0 1.86,0 2.78,0.96 0,0 0.93,0.97 0.93,2.94 l 0,0.92 c 0,0 -0.58,-1.01 -1.5,-1.51 0,0 -0.91,-0.5 -2.18,-0.5 0,0 -2.11,0 -3.400002,1.61 0,0 -1.3,1.61 -1.3,4.26 0,0 0,2.68 1.3,4.28 0,0 1.290002,1.61 3.400002,1.61 0,0 1.27,0 2.18,-0.5 0,0 0.92,-0.51 1.5,-1.53 l 0,1.75 1.89,0 0,-10.06 z"
     id="path172"
     inkscape:connector-curvature="0"><title
       id="title174">g</title></path><path
     style="fill:#000000;fill-opacity:1;fill-rule:nonzero;stroke:none"
     d="m 265.36168,77.955837 c 0,0 0.001,-2.082786 0.85367,-3.262768 0,0 0.84569,-1.187476 2.34801,-1.193703 0,0 1.49483,4.41e-4 2.35655,1.187246 0,0 0.86174,1.186855 0.86788,3.263019 0,0 -0.001,2.082787 -0.86116,3.269389 0,0 -0.85232,1.179982 -2.35464,1.18621 0,0 -1.49482,-4.41e-4 -2.34993,-1.179753 0,0 -0.85423,-1.193475 -0.86038,-3.26964 z m 6.4192,-4.016511 c 0,0 -0.59565,-1.021615 -1.50018,-1.516826 0,0 -0.91114,-0.502707 -2.17263,-0.495747 0,0 -2.08279,-0.0013 -3.39,1.660575 0,0 -1.3147,1.668547 -1.30464,4.368399 0,0 0.003,2.706472 1.31626,4.374705 0,0 1.31457,1.654119 3.39735,1.655468 0,0 1.2615,-0.0069 2.17069,-0.5033 0,0 0.90258,-0.503836 1.49035,-1.530157 l 0.005,1.74315 1.88429,0.0032 -0.0107,-15.85598 -1.8843,-0.0032 -0.002,6.099713 z"
     id="path176"
     inkscape:connector-curvature="0"><title
       id="title178">q</title></path><path
     style="fill:#000000;fill-opacity:1;fill-rule:nonzero;stroke:none"
     d="m 236.03511,47.50226 c 0,0 -2.26431,-0.0031 -3.58732,-1.680123 0,0 -1.33243,-1.680239 -1.34021,-4.583538 0,0 -0.002,-2.890567 1.32244,-4.569044 0,0 1.33681,-1.684635 3.60113,-1.681468 0,0 2.24543,-0.0034 3.56843,1.673561 0,0 1.32298,1.676956 1.32461,4.567532 0,0 0.004,2.912746 -1.31957,4.591213 0,0 -1.31462,1.681751 -3.56951,1.681867 z m 0.008,1.685721 c 0,0 3.2195,-0.0038 5.13471,-2.165031 0,0 1.91847,-2.170679 1.91655,-5.791798 0,0 -0.002,-3.621118 -1.92918,-5.783218 0,0 -1.92108,-2.149367 -5.14061,-2.145566 0,0 -3.22891,5.48e-4 -5.16302,2.155191 0,0 -1.94681,2.160835 -1.93546,5.785235 0,0 0.002,3.621118 1.93865,5.786495 0,0 1.93668,2.165379 5.17836,2.158692 z"
     id="path180"
     inkscape:connector-curvature="0"><title
       id="title182">O</title></path><path
     style="fill:#000000;fill-opacity:1;fill-rule:nonzero;stroke:none"
     d="m 102.33486,12.716718 c 0,0 -1.41388,0.03094 -2.23661,-0.914371 0,0 -0.833865,-0.936578 -0.864655,-2.6022462 0,0 -0.0232,-1.6446152 0.768845,-2.6167695 0,0 0.79329,-0.9820824 2.20597,-1.003091 0,0 1.3829,-0.024601 2.21556,0.9219047 0,0 0.83266,0.9465052 0.85711,2.5811923 0,0 0.0296,1.6755967 -0.7625,2.6477507 0,0 -0.80083,0.961029 -2.18372,0.98563 z m 4.22269,6.411714 -0.0342,-1.887677 c 0,0 -0.77229,0.39034 -1.57267,0.595988 0,0 -0.79046,0.206846 -1.56809,0.223861 0,0 -2.04892,0.03493 -3.15378,-1.327156 0,0 -1.104865,-1.362085 -1.311725,-4.156958 0,0 0.61904,0.880452 1.540155,1.344074 0,0 0.92232,0.453694 2.03236,0.436478 0,0 2.29079,-0.03598 3.60064,-1.459387 0,0 1.30985,-1.423409 1.26958,-3.8456558 0,0 -0.0375,-2.3614809 -1.46009,-3.7618808 0,0 -1.41383,-1.3892751 -3.72567,-1.3457621 0,0 -2.654185,0.04251 -4.020805,2.1037145 0,0 -1.37775,2.0699303 -1.30894,5.9259082 0,0 0.0666,3.624041 1.82349,5.759764 0,0 1.758125,2.125795 4.665305,2.073501 0,0 0.77643,-0.0071 1.57322,-0.182952 0,0 0.79559,-0.165936 1.65125,-0.49586 z"
     id="path184"
     inkscape:connector-curvature="0"><title
       id="title186">6</title></path><path
     style="fill:#000000;fill-opacity:1;fill-rule:nonzero;stroke:none"
     d="m 125.87422,11.562988 c 0,0 -1.46124,0.0014 -2.32043,-0.783734 0,0 -0.8492,-0.7847041 -0.85378,-2.1660002 0,0 -0.005,-1.3812962 0.84806,-2.1777269 0,0 0.85224,-0.7864387 2.31348,-0.7878106 0,0 1.4916,-0.010161 2.3404,0.7845361 0,0 0.85879,0.7950977 0.85338,2.1759926 0,0 0.005,1.3713042 -0.84766,2.167735 0,0 -0.84225,0.78684 -2.33345,0.787008 z m -2.0577,0.898162 c 0,0 -1.34417,0.32633 -2.08173,1.247479 0,0 -0.74714,0.910756 -0.73975,2.222109 0,0 0.006,1.831736 1.3149,2.895089 0,0 1.31798,1.073746 3.58017,1.064505 0,0 2.30176,0.0024 3.59609,-1.076581 0,0 1.29393,-1.068944 1.28742,-2.90068 0,0 0.003,-1.310951 -0.74146,-2.221539 0,0 -0.74406,-0.910588 -2.07215,-1.234135 0,0 1.49606,-0.370272 2.32755,-1.387729 0,0 0.84149,-1.017056 0.82972,-2.4686969 0,0 -4.5e-4,-2.2318153 -1.36397,-3.417479 0,0 -1.36353,-1.1856637 -3.88591,-1.1768627 0,0 -2.53198,-0.0016 -3.89108,1.1948402 0,0 -1.3587,1.1864402 -1.35824,3.4182555 0,0 0.002,1.4512399 0.85173,2.4661599 0,0 0.84997,1.014921 2.34671,1.375265 z m -0.7615,3.262074 c 0,0 -0.003,-1.181056 0.7349,-1.852006 0,0 0.74711,-0.660555 2.08844,-0.666742 0,0 1.34093,0.0038 2.09502,0.664594 0,0 0.75409,0.660789 0.75631,1.851837 0,0 0.003,1.181056 -0.7453,1.861596 0,0 -0.7475,0.670547 -2.09842,0.666341 0,0 -1.34133,0.0062 -2.08503,-0.664193 0,0 -0.7437,-0.670379 -0.74592,-1.861427 z"
     id="path188"
     inkscape:connector-curvature="0"><title
       id="title190">8</title></path><path
     style="fill:#000000;fill-opacity:1;fill-rule:nonzero;stroke:none"
     d="m 12.278,18.532201 c 0,0 -1.590759,0.0092 -2.4098238,-1.561329 0,0 -0.819065,-1.570584 -0.846449,-4.721751 0,0 -0.03775,-3.1607869 0.754304,-4.7313766 0,0 0.7916808,-1.5805827 2.3820668,-1.5998299 0,0 1.610745,-0.01 2.429438,1.5505917 0,0 0.818692,1.5605906 0.846448,4.7217498 0,0 0.03738,3.150795 -0.753931,4.74137 0,0 -0.791681,1.580583 -2.402053,1.600575 z m 0.01112,1.640725 c 0,0 2.580817,-0.02614 3.925342,-2.077641 0,0 1.334532,-2.051128 1.300318,-5.92254 0,0 -0.03384,-3.8614185 -1.41041,-5.8915569 0,0 -1.376567,-2.0301382 -3.957384,-2.0039972 0,0 -2.5608308,0.02539 -3.9053558,2.0768949 0,0 -1.334532,2.0511277 -1.30069,5.9125462 0,0 0.03421,3.871412 1.410782,5.901551 0,0 1.376567,2.030138 3.9373978,2.004743 z"
     id="path192"
     inkscape:connector-curvature="0"><title
       id="title194">0</title></path><path
     style="fill:#000000;fill-opacity:1;fill-rule:nonzero;stroke:none"
     d="m 70.503991,145.4808 c 0,0 -0.820056,8.2e-4 -1.387347,-0.57251 0,0 -0.569963,-0.56324 -0.570329,-1.38331 0,0 -0.003,-0.81042 0.567157,-1.36807 0,0 0.572875,-0.56729 1.390258,-0.55801 0,0 0.822739,-0.01 1.390025,0.56288 0,0 0.560329,0.56056 0.563373,1.37099 0,0 -0.0039,0.7981 -0.57947,1.37503 0,0 -0.565919,0.57959 -1.373667,0.573 z m -0.0056,1.32698 c 0,0 0.652514,0.005 1.253661,-0.25365 0,0 0.601182,-0.25842 1.062161,-0.72188 0,0 0.467935,-0.45116 0.70412,-1.03939 0,0 0.236186,-0.58822 0.236861,-1.26269 0,0 -0.0056,-1.36124 -0.949119,-2.29818 0,0 -0.943519,-0.93696 -2.324025,-0.93671 0,0 -1.390141,-0.002 -2.312102,0.9245 0,0 -0.91928,0.91729 -0.92171,2.30743 0,0 0.0056,1.36124 0.943763,2.31745 0,0 0.945116,0.96855 2.306354,0.96293 z"
     id="path196"
     inkscape:connector-curvature="0"><title
       id="title198">°</title></path><path
     style="fill:#000000;fill-opacity:1;fill-rule:nonzero;stroke:none"
     d="m 61.675316,110.7026 -8.49e-4,-1.76241 c 0,0 -0.808907,0.43791 -1.610374,0.65459 0,0 -0.811055,0.21953 -1.624258,0.22066 0,0 -1.83521,0.002 -2.859086,-1.16561 0,0 -1.011446,-1.16042 -1.016938,-3.25521 0,0 0.0013,-2.10723 1.021394,-3.27527 0,0 1.010552,-1.16519 2.858192,-1.16001 0,0 0.813203,-10e-4 1.618966,0.21897 0,0 0.799017,0.23254 1.616515,0.66819 l 0.002,-1.75282 c 0,0 -0.804354,-0.356114 -1.642784,-0.545677 0,0 -0.848019,-0.186721 -1.797229,-0.187001 0,0 -2.594791,0.0077 -4.124123,1.639518 0,0 -1.529331,1.63185 -1.533729,4.3971 0,0 2.22e-4,2.81602 1.550406,4.42171 0,0 1.540596,1.60853 4.230202,1.60405 0,0 0.866824,0.004 1.698834,-0.18017 0,0 0.83485,-0.17443 1.612868,-0.54061 z M 58.537754,99.658916 c 0,0 0.562445,-0.636047 0.840098,-1.177257 0,0 0.277654,-0.541211 0.281167,-1.02203 0,0 -0.0036,-0.927193 -0.618001,-1.381331 0,0 -0.617219,-0.463726 -1.838444,-0.466825 0,0 -0.46839,0.0032 -0.910143,0.06115 0,0 -0.448499,0.07035 -0.88279,0.188634 l -6.04e-4,1.335215 c 0,0 0.344443,-0.175096 0.72689,-0.257157 0,0 0.385289,-0.07247 0.863268,-0.07855 0,0 0.59481,0.001 0.909102,0.252057 0,0 0.314293,0.251038 0.317526,0.719428 0,0 -10e-4,0.313208 -0.224726,0.754983 0,0 -0.211255,0.448521 -0.684568,1.068581 l 1.221225,0.0031 z"
     id="path200"
     inkscape:connector-curvature="0"><title
       id="title202">ç</title></path><path
     style="fill:#000000;fill-opacity:1;fill-rule:nonzero;stroke:none"
     d="m 47.328411,82.764834 0.0022,-1.771015 c 0,0 -0.815996,0.434685 -1.622077,0.657471 0,0 -0.806081,0.222785 -1.620017,0.220097 0,0 -1.841649,-0.0055 -2.852025,-1.165529 0,0 -1.020198,-1.161937 -1.016959,-3.258527 0,0 -0.0047,-2.108287 1.010872,-3.268415 0,0 1.017457,-1.169949 2.859106,-1.164481 0,0 0.815812,-0.0071 1.616083,0.227099 0,0 0.81197,0.226286 1.625723,0.656526 l -0.0035,-1.741548 c 0,0 -0.795537,-0.365678 -1.636529,-0.546602 0,0 -0.848938,-0.192622 -1.806017,-0.192097 0,0 -2.584952,-0.0048 -4.119976,1.636399 0,0 -1.533148,1.631427 -1.53059,4.390864 0,0 0.0011,2.820248 1.54692,4.428673 0,0 1.545792,1.608424 4.234595,1.602561 0,0 0.855103,3.67e-4 1.692973,-0.175627 0,0 0.83787,-0.175993 1.619217,-0.535849 z"
     id="path204"
     inkscape:connector-curvature="0"><title
       id="title206">c</title></path><path
     style="fill:#000000;fill-opacity:1;fill-rule:nonzero;stroke:none"
     d="m 50.8306,46.940105 -0.0033,-2.180021 c 0,0 -1.042985,0.976823 -2.234443,1.45319 0,0 -1.18149,0.486398 -2.511514,0.49234 0,0 -2.630018,0.002 -4.0251,-1.612287 0,0 -1.405112,-1.604295 -1.405868,-4.634311 0,0 -7.56e-4,-3.030016 1.404149,-4.635737 0,0 1.394906,-1.605752 4.014924,-1.607759 0,0 1.329994,0.0041 2.518524,0.487686 0,0 1.18853,0.483628 2.235566,1.456827 l -0.0033,-2.18002 c 0,0 -1.087768,-0.733322 -2.306664,-1.097043 0,0 -1.208896,-0.36369 -2.56889,-0.367839 0,0 -3.480014,-6.17e-4 -5.476534,2.133302 0,0 -2.006488,2.123889 -1.997746,5.813932 0,0 -0.0012,3.680014 2.002265,5.816136 0,0 1.993523,2.126092 5.483537,2.126739 0,0 1.369994,0.0042 2.581117,-0.362127 0,0 1.211154,-0.376307 2.293376,-1.103008 z"
     id="path208"
     inkscape:connector-curvature="0"><title
       id="title210">C</title></path><path
     style="fill:#000000;fill-opacity:1;fill-rule:nonzero;stroke:none"
     d="m 289.79087,41.299851 c 0,0 0.66238,-0.219218 1.29578,-0.95936 0,0 0.63339,-0.740141 1.27213,-2.026149 l 2.0894,-4.184983 -2.2178,0.0036 -1.96663,3.920918 c 0,0 -0.75007,1.541759 -1.46762,2.045856 0,0 -0.70768,0.505658 -1.94239,0.502743 l -2.26716,-0.0042 1.1e-4,-6.469328 -2.05662,0.0088 -0.002,15.307726 4.66744,-9.36e-4 c 0,0 2.63213,0.0012 3.93002,-1.099576 0,0 1.29788,-1.100765 1.29273,-3.308676 0,0 -0.003,-1.448373 -0.67264,-2.404596 0,0 -0.66882,-0.956221 -1.95594,-1.331897 z m -5.20091,6.446689 0.001,-5.446732 2.61081,0.008 c 0,0 1.49932,-0.0058 2.25972,0.691489 0,0 0.77028,0.698908 0.7715,2.035509 0,0 -5.3e-4,1.346476 -0.76578,2.025239 0,0 -0.76542,0.678762 -2.26474,0.684619 l -2.61239,0.0019 z"
     id="path212"
     inkscape:connector-curvature="0"><title
       id="title214">R</title></path><path
     style="fill:#000000;fill-opacity:1;fill-rule:nonzero;stroke:none"
     d="m 318.11852,87.033143 0.002,-3.267446 3.88913,-0.0013 -0.005,-1.46696 -3.88912,0.0013 -4.5e-4,-6.240656 c 0,0 0.004,-1.404275 0.38407,-1.799913 0,0 0.38088,-0.395638 1.57326,-0.402328 l 1.9338,0.0024 0.006,-1.576886 -1.94362,-0.0043 c 0,0 -2.18874,-1.48e-4 -3.01694,0.819192 0,0 -0.82632,0.809501 -0.83066,2.966902 l 0.002,6.230835 -1.38463,5.24e-4 -0.007,1.474909 1.39446,0.0013 -9.5e-4,3.257622 1.89264,0.0047 z"
     id="path216"
     inkscape:connector-curvature="0"><title
       id="title218">t</title></path><path
     style="fill:#000000;fill-opacity:1;fill-rule:nonzero;stroke:none"
     d="m 328.0846,49.038465 2.08062,-5.91e-4 -0.011,-9.296627 c 0,0 -0.0102,-2.471658 0.87551,-3.546827 0,0 0.89467,-1.086129 2.89469,-1.088571 0,0 2.00002,-0.0024 2.89343,1.072655 0,0 0.8934,1.075096 0.89367,3.547767 l 0.0209,9.295615 2.08062,-5.9e-4 -0.0284,-9.566253 c 0,0 -0.002,-2.985112 -1.48439,-4.512935 0,0 -1.4922,-1.52681 -4.37681,-1.524838 0,0 -2.91345,0.01496 -4.38647,1.541887 0,0 -1.472,1.536879 -1.46986,4.521991 l 0.0174,9.557317 z"
     id="path220"
     inkscape:connector-curvature="0"><title
       id="title222">U</title></path><path
     style="fill:#000000;fill-opacity:1;fill-rule:nonzero;stroke:none"
     d="m 51.847259,147.29061 1.641169,-0.0162 c 0,0 1.511713,-2.42729 2.266057,-4.74784 0,0 0.747823,-2.3331 0.734273,-4.61317 0,0 -0.01054,-2.2896 -0.796478,-4.61451 0,0 -0.776407,-2.3219 -2.325701,-4.72025 l -1.638156,0.007 c 0,0 1.371139,2.33156 2.062224,4.65796 0,0 0.684564,2.31384 0.699598,4.68877 0,0 0.01503,2.37492 -0.641439,4.68446 0,0 -0.656474,2.30953 -2.001547,4.67412 z"
     id="path224"
     inkscape:connector-curvature="0"><title
       id="title226">)</title></path><path
     style="fill:#000000;fill-opacity:1;fill-rule:nonzero;stroke:none"
     d="m 404.53033,48.881264 2.23033,0.0059 4.23397,-6.29909 4.22183,6.298305 2.23877,5.37e-4 -5.42301,-8.023199 8.1e-4,-7.296142 -2.08079,0.0058 -8.1e-4,7.296143 -5.4211,8.011753 z"
     id="path228"
     inkscape:connector-curvature="0"><title
       id="title230">Y</title></path><path
     style="fill:#000000;fill-opacity:1;fill-rule:nonzero;stroke:none"
     d="m 345.89104,83.372418 1.99912,-2.81e-4 3.59038,-9.640092 3.58413,9.639246 1.99912,-2.81e-4 -4.30041,-11.487851 -2.56798,0.0037 -4.30436,11.485603 z"
     id="path232"
     inkscape:connector-curvature="0"><title
       id="title234">v</title></path><path
     style="fill:#000000;fill-opacity:1;fill-rule:nonzero;stroke:none"
     d="m 348.77564,33.498385 -5.85154,15.306179 2.15232,-9.33e-4 4.85553,-12.885341 4.85142,12.89391 2.15233,-9.32e-4 -5.81669,-15.314317 -2.34337,0.0014 z"
     id="path236"
     inkscape:connector-curvature="0"><title
       id="title238">V</title></path><path
     style="fill:#000000;fill-opacity:1;fill-rule:nonzero;stroke:none"
     d="m 109.24929,19.398212 9.84491,-0.0025 -0.004,-0.892012 -5.54324,-14.4211954 -2.16591,-0.0055 5.2318,13.5712534 -7.35911,-0.0049 -0.005,1.754815 z"
     id="path240"
     inkscape:connector-curvature="0"><title
       id="title242">7</title></path><path
     style="fill:#000000;fill-opacity:1;fill-rule:nonzero;stroke:none"
     d="m 362.6835,83.251872 1.8917,0.0029 2.36177,-8.97254 2.33599,8.968146 2.23403,0.0054 2.36177,-8.972542 2.34593,8.967052 1.89168,0.0029 -3.00503,-11.479993 -2.23403,-0.0054 -2.46488,9.40644 -2.48467,-9.404491 -2.22407,-0.0065 -3.01019,11.488665 z"
     id="path244"
     inkscape:connector-curvature="0"><title
       id="title246">w</title></path><path
     style="fill:#000000;fill-opacity:1;fill-rule:nonzero;stroke:none"
     d="m 193.86041,48.681203 3.08172,-5.51e-4 3.90174,-10.424551 3.94479,10.418475 3.06887,-0.0065 3.8e-4,-15.313785 -2.01547,1.33e-4 10e-4,13.44697 -3.95383,-10.500441 -2.07868,0.0022 -3.93715,10.501657 0.002,-13.437593 -2.01547,1.34e-4 -3.8e-4,15.313785 z"
     id="path248"
     inkscape:connector-curvature="0"><title
       id="title250">M</title></path><path
     style="fill:#000000;fill-opacity:1;fill-rule:nonzero;stroke:none"
     d="m 155.71101,48.821891 2.06618,-0.0096 -0.021,-6.470097 6.89299,6.456185 2.66908,9.99e-4 -7.60069,-7.130389 8.11589,-8.183523 -2.72888,0.0039 -7.34859,7.387881 -0.0151,-7.373628 -2.05704,-0.0012 0.0271,15.319435 z"
     id="path252"
     inkscape:connector-curvature="0"><title
       id="title254">K</title></path><path
     style="fill:#000000;fill-opacity:1;fill-rule:nonzero;stroke:none"
     d="m 153.36949,86.345722 1.89409,0.0021 -0.008,-9.424035 5.64925,4.945947 2.40104,-1.37e-4 -6.09341,-5.370821 6.33827,-6.1165 -2.45489,1.82e-4 -5.83731,5.616564 -0.0102,-5.613564 -1.88851,0.01085 0.01,15.94937 z"
     id="path256"
     inkscape:connector-curvature="0"><title
       id="title258">k</title></path><path
     style="fill:#000000;fill-opacity:1;fill-rule:nonzero;stroke:none"
     d="m 21.981669,5.7169423 3.37929,-9.508e-4 0.01867,11.6642215 -3.671153,-0.725215 -0.002,1.892115 3.662691,0.730543 2.075464,-0.0071 -0.02199,-13.5647974 3.37929,-9.507e-4 -0.0071,-1.7564027 -8.814923,0.02059 0.0017,1.7479403 z"
     id="path260"
     inkscape:connector-curvature="0"><title
       id="title262">1</title></path><path
     style="fill:#000000;fill-opacity:1;fill-rule:nonzero;stroke:none"
     d="m 410.85834,70.056428 c 0,0 -0.79472,-2.059934 -1.55703,-2.689361 0,0 -0.75245,-0.619304 -2.02247,-0.62493 l -1.51013,0.0015 3.7e-4,1.580127 1.10004,0.0035 c 0,0 0.79007,-2.9e-4 1.21549,0.374982 0,0 0.4354,0.375386 0.95863,1.741926 l 0.3294,0.864119 -4.63931,11.293775 2.0001,0.0047 3.59084,-8.9865 3.57972,8.984722 2.00009,0.0047 -5.04593,-12.553032 z"
     id="path264"
     inkscape:connector-curvature="0"><title
       id="title266">y</title></path><path
     style="fill:#000000;fill-opacity:1;fill-rule:nonzero;stroke:none"
     d="m 37.548774,6.1045457 7.236135,0.027539 -0.0014,-1.7526253 -9.724286,-0.02747 -0.0098,1.7439049 c 0,0 1.186495,1.2258583 3.209818,3.2868926 0,0 2.023324,2.0610341 2.548428,2.6520211 0,0 1.002059,1.117309 1.388832,1.896351 0,0 0.38798,0.788969 0.385467,1.514568 0,0 -5.7e-4,1.239112 -0.855321,1.99773 0,0 -0.853545,0.768545 -2.234047,0.765005 0,0 -0.977392,-0.0021 -2.056556,-0.344499 0,0 -1.079163,-0.342354 -2.310939,-1.028815 l -0.0073,2.096175 c 0,0 1.249776,0.50295 2.339146,0.763476 0,0 1.079442,0.261732 1.98614,0.262391 0,0 2.377748,0.0033 3.794632,-1.186282 0,0 1.416883,-1.189555 1.417554,-3.17412 0,0 0.007,-0.937684 -0.338612,-1.792246 0,0 -0.355507,-0.853354 -1.289283,-1.989032 0,0 -0.248264,-0.302266 -1.620124,-1.727223 0,0 -1.361932,-1.4261627 -3.858592,-3.9837377 z"
     id="path268"
     inkscape:connector-curvature="0"><title
       id="title270">2</title></path><path
     style="fill:#000000;fill-opacity:1;fill-rule:nonzero;stroke:none"
     d="m 143.4525,82.93023 1.87523,-0.0063 -0.017,-11.680957 c 0,0 -0.003,-2.205809 -0.84477,-3.188367 0,0 -0.84207,-0.982556 -2.68665,-0.984111 l -0.71247,0.0092 0.006,1.604485 0.4916,-0.005 c 0,0 1.08224,0.0072 1.47834,0.496696 0,0 0.38613,0.488782 0.39385,2.063343 l 0.0163,11.690931 z m 0.0111,4.472178 1.87523,-0.0063 -0.01,-2.386777 -1.87451,-0.0037 0.009,2.396752 z"
     id="path272"
     inkscape:connector-curvature="0"><title
       id="title274">j</title></path><path
     style="fill:#000000;fill-opacity:1;fill-rule:nonzero;stroke:none"
     d="m 143.25977,49.677868 2.06582,0.01002 0.0158,-14.256898 c 0,0 0.0114,-2.758708 -1.03765,-4.012505 0,0 -1.04904,-1.253797 -3.37466,-1.253657 l -0.79708,-0.0081 0.004,1.740397 0.65191,-0.0032 c 0,0 1.37293,0.0086 1.93829,0.784062 0,0 0.55598,0.771933 0.55507,2.755793 l -0.0217,14.244042 z"
     id="path276"
     inkscape:connector-curvature="0"><title
       id="title278">J</title></path><path
     style="fill:#000000;fill-opacity:1;fill-rule:nonzero;stroke:none"
     d="m 14.266663,46.368863 -2.789113,-7.606908 5.624304,4.18e-4 -2.835191,7.60649 z m -1.150978,2.046497 2.34212,0.0086 5.84673,-15.309939 -2.161867,-0.0056 -1.397726,3.927563 -6.885687,-0.01118 -1.4044334,-3.928162 -2.171469,0.0048 5.8323324,15.31397 z"
     id="path280"
     inkscape:connector-curvature="0"><title
       id="title282">A</title></path><path
     style="fill:#000000;fill-opacity:1;fill-rule:nonzero;stroke:none"
     d="m 73.675795,17.212641 -5.20715,-8.1870883 5.23799,0.019105 -0.0308,8.1679843 z m -0.54907,1.813675 2.60799,0.0075 0.0299,-9.9819845 2.194,0.0093 0.005,-1.7219974 -2.186,-0.0033 0.008,-3.6079958 -2.06599,-0.013225 -0.008,3.6079958 -6.90999,-0.024096 -0.001,1.9999996 6.32624,9.7277523 z"
     id="path284"
     inkscape:connector-curvature="0"><title
       id="title286">4</title></path><path
     style="fill:#000000;fill-opacity:1;fill-rule:nonzero;stroke:none"
     d="m 56.219365,12.407108 c 0,0 1.5026,-0.317306 2.31783,-1.327802 0,0 0.82522,-1.010745 0.81881,-2.4810371 0,0 -0.0162,-2.2702944 -1.5772,-3.5020186 0,0 -1.56098,-1.231723 -4.43159,-1.220637 0,0 -0.95995,0.01378 -1.97568,0.198984 0,0 -1.02547,0.195453 -2.11597,0.592578 l 0.01,2.0003775 c 0,0 0.87735,-0.5218853 1.89134,-0.7770725 0,0 1.02399,-0.2554349 2.13414,-0.2629274 0,0 1.95039,-0.0083 2.97965,0.7564485 0,0 1.029,0.7547508 1.03541,2.2250429 0,0 0.0132,1.3400843 -0.93794,2.1138737 0,0 -0.95113,0.77379 -2.6416,0.775651 l -1.7802,0.01409 0.0121,1.700221 1.86042,-0.0061 c 0,0 1.53027,-0.0079 2.34538,0.592104 0,0 0.81535,0.609998 0.82384,1.76014 0,0 0.009,1.180134 -0.82541,1.810995 0,0 -0.83439,0.640858 -2.39465,0.649496 0,0 -0.86023,0.0013 -1.82489,-0.174864 0,0 -0.9749,-0.185916 -2.1447,-0.567066 l 0.006,1.86042 c 0,0 1.17831,0.320921 2.20245,0.475608 0,0 1.03414,0.154439 1.95436,0.151651 0,0 2.36051,-0.0084 3.73408,-1.0928 0,0 1.36333,-1.094095 1.35849,-2.90453 0,0 -0.0117,-1.280103 -0.74352,-2.152249 0,0 -0.74182,-0.871898 -2.09057,-1.208603 z"
     id="path288"
     inkscape:connector-curvature="0"><title
       id="title290">3</title></path><path
     style="fill:#000000;fill-opacity:1;fill-rule:nonzero;stroke:none"
     d="m 91.88434,86.65614 0.005,-1.551927 -1.814935,-0.0097 c 0,0 -1.014343,-0.0031 -1.399759,-0.414819 0,0 -0.39527,-0.413475 -0.383693,-1.477085 l -0.0068,-1.016048 3.115417,0.0014 -7.4e-4,-1.46154 -3.10385,-0.0095 0.01818,-10.013625 -1.907033,-0.0053 -0.01817,10.013625 -1.795233,-0.0063 -0.01083,1.469688 1.805086,0.008 -0.0066,0.800597 c 0,0 -0.007,1.916886 0.896621,2.793863 0,0 0.893811,0.875272 2.830404,0.885728 l 1.777235,-0.007 z"
     id="path292"
     inkscape:connector-curvature="0"><title
       id="title294">f</title></path><path
     style="fill:#000000;fill-opacity:1;fill-rule:nonzero;stroke:none"
     d="m 84.050845,19.202854 8.11935,0.02002 0.006,-1.746443 -6.23338,-0.02568 0.0111,-3.743685 c 0,0 0.45418,0.15304 0.90258,0.23632 0,0 0.45837,0.08245 0.90931,0.07522 0,0 2.55946,0.0088 4.06912,-1.390549 0,0 1.4997,-1.398534 1.51093,-3.8076779 0,0 0.006,-2.4689387 -1.53185,-3.8366703 0,0 -1.53894,-1.377697 -4.32927,-1.387458 0,0 -0.97329,3.22e-4 -1.97324,0.1634 0,0 -0.99996,0.163078 -2.05729,0.481421 l -0.009,2.0777933 c 0,0 0.92206,-0.4977918 1.90627,-0.7298054 0,0 0.98339,-0.2419796 2.0771,-0.2422393 0,0 1.78713,0.012559 2.80727,0.9415402 0,0 1.03011,0.9281552 1.03177,2.52346 0,0 -0.007,1.6160614 -1.04437,2.5348334 0,0 -1.02693,0.927913 -2.81324,0.92532 0,0 -0.82298,-0.0021 -1.65084,-0.184392 0,0 -0.82787,-0.182302 -1.693,-0.572237 l -0.0156,7.687513 z"
     id="path296"
     inkscape:connector-curvature="0"><title
       id="title298">5</title></path><path
     style="fill:#000000;fill-opacity:1;fill-rule:nonzero;stroke:none"
     d="m 55.193535,46.346435 4.7e-5,-11.910944 2.520178,0.0018 c 0,0 3.160253,-2.04e-4 4.632247,1.438471 0,0 1.471992,1.438657 1.473062,4.528916 0,0 0.0012,3.080259 -1.476955,4.511752 0,0 -1.47815,1.431492 -4.628405,1.431806 l -2.520178,-0.0018 z m -2.061506,1.694164 4.250292,0.0035 c 0,0 4.450278,0.0061 6.533797,-1.847836 0,0 2.09352,-1.853773 2.093034,-5.784091 0,0 -1.26e-4,-3.960315 -2.086888,-5.816752 0,0 -2.096778,-1.856562 -6.537056,-1.8625 l -4.250292,-0.0035 -0.0029,15.311178 z"
     id="path300"
     inkscape:connector-curvature="0"><title
       id="title302">D</title></path><path
     style="fill:#000000;fill-opacity:1;fill-rule:nonzero;stroke:none"
     d="m 248.89289,46.792311 0.002,-5.747991 2.61122,0.0024 c 0,0 1.45246,0.0092 2.24595,0.762059 0,0 0.78415,0.749337 0.78488,2.119921 0,0 -0.003,1.379924 -0.79175,2.127543 0,0 -0.79824,0.744049 -2.24492,0.747809 l -2.60765,-0.01175 z m -2.0742,1.701618 4.67466,0.0096 c 0,0 2.57963,10e-4 3.89897,-1.154062 0,0 1.3229,-1.16444 1.32536,-3.41166 0,0 0.01,-2.265901 -1.31389,-3.424777 0,0 -1.31057,-1.164647 -3.8902,-1.165684 l -2.61123,-0.0024 0.0107,-6.162272 -2.05409,-0.0036 -0.0403,15.314884 z"
     id="path304"
     inkscape:connector-curvature="0"><title
       id="title306">P</title></path><path
     style="fill:#000000;fill-opacity:1;fill-rule:nonzero;stroke:none"
     d="m 27.978475,40.333452 -0.002,-5.603499 3.32567,-0.0037 c 0,0 1.67371,-0.0045 2.47751,0.693721 0,0 0.80605,0.688463 0.80594,2.114822 0,0 0.007,1.438349 -0.79508,2.115531 0,0 -0.81443,0.684683 -2.48589,0.679425 l -3.32567,0.0037 z m 0.006,6.302061 -0.006,-4.608868 3.08057,-0.0089 c 0,0 1.51855,8.3e-4 2.26159,0.561898 0,0 0.74304,0.561071 0.73831,1.740086 0,0 0.002,1.14978 -0.73678,1.728746 0,0 -0.74852,0.576721 -2.25733,0.578138 l -3.08057,0.0089 z m -2.06421,1.700101 5.29544,-0.0016 c 0,0 2.36028,-2.99e-4 3.64453,-0.987246 0,0 1.28426,-0.986952 1.27972,-2.794071 0,0 -0.004,-1.406868 -0.66283,-2.246054 0,0 -0.64871,-0.83694 -1.91626,-1.036504 0,0 1.5319,-0.324475 2.36866,-1.37344 0,0 0.84426,-1.036976 0.84433,-2.596752 0,0 8.8e-4,-2.052217 -1.39553,-3.163906 0,0 -1.40587,-1.113932 -3.96028,-1.117299 l -5.50156,0.0054 0.004,15.311434 z"
     id="path308"
     inkscape:connector-curvature="0"><title
       id="title310">B</title></path><!--</g>--><path
     style="fill:#000000;fill-opacity:1;fill-rule:nonzero;stroke:none"
     d="m 423.76276,48.619425 12.03811,-0.0032 0.003,-1.582559 -9.68266,-11.978752 9.90884,-0.0039 -0.004,-1.74642 -12.49906,-0.0014 -0.003,1.582559 9.69674,11.979977 -9.45432,8.67e-4 -0.003,1.752852 z"
     inkscape:connector-curvature="0"
     id="path165"><title
       id="title3140">Z</title></path><path
     style="fill:#000000;fill-opacity:1;fill-rule:nonzero;stroke:none"
     d="m 381.66105,48.620389 2.22576,-0.0042 3.80655,-5.677593 3.8119,5.680615 2.23504,0.0064 -4.91698,-7.362048 5.24923,-7.952233 -2.23502,-0.0064 -4.29637,6.515377 -4.3452,-6.509956 -2.22505,-0.0057 5.46164,8.172141 -4.7715,7.143675 z"
     inkscape:connector-curvature="0"
     id="path169"><title
       id="title3146">X</title></path><path
     style="fill:#000000;fill-opacity:1;fill-rule:nonzero;stroke:none"
     d="m 360.3563,48.61155 2.10098,-8.73e-4 3.21512,-12.943299 3.20441,12.939251 2.32569,0.0017 3.22036,-12.934782 3.2044,12.939252 2.10951,-0.0062 -3.83945,-15.307634 -2.61721,0.0015 -3.23354,13.295095 -3.24954,-13.298923 -2.6087,-0.0038 -3.83203,15.318656 z"
     inkscape:connector-curvature="0"
     id="path170"><title
       id="title3147">W</title></path><path
     style="fill:#000000;fill-opacity:1;fill-rule:nonzero;stroke:none"
     d="m 102.16215,143.89622 1.75,0 -5.33,-17.26 -1.75,0 5.33,17.26 z"
     inkscape:connector-curvature="0"
     id="path171"><title
       id="title3148">/</title></path><path
     style="fill:#000000;fill-opacity:1;fill-rule:nonzero;stroke:none"
     d="m 268.86018,49.938835 c 0,0 -2.26373,-0.0037 -3.58745,-1.685456 0,0 -1.32644,-1.672117 -1.32794,-4.581429 0,0 0.003,-2.887351 1.32868,-4.570976 0,0 1.3356,-1.680913 3.59934,-1.6772 0,0 2.24447,-0.0017 3.5682,1.680034 0,0 1.3141,1.679032 1.32102,4.569093 0,0 -0.008,2.906603 -1.32177,4.583311 0,0 -1.32597,1.683625 -3.58008,1.682623 z m 2.90122,-13.623617 2.73035,-2.981563 -2.49176,-0.0056 -2.27082,2.456459 c 0,0 -0.34354,-0.0344 -0.51801,-0.04198 0,0 -0.18411,-0.01029 -0.33933,-0.01243 0,0 -3.23211,0.0041 -5.17854,2.157132 0,0 -1.9368,2.155734 -1.93943,5.780717 0,0 -0.003,3.624981 1.94245,5.793357 0,0 1.93546,2.165665 5.16756,2.161557 0,0 3.21977,0.0028 5.13732,-2.158349 0,0 1.92989,-2.168071 1.93252,-5.793052 0,0 -0.006,-2.671659 -1.07103,-4.571422 0,0 -1.06765,-1.890136 -3.10128,-2.784832 z"
     inkscape:connector-curvature="0"
     id="path173"><title
       id="title3150">Q</title></path><text
     xml:space="preserve"
     style="font-size:12px;font-style:normal;font-weight:normal;line-height:125%;letter-spacing:0px;word-spacing:0px;fill:#000000;fill-opacity:1;stroke:none;font-family:Sans"
     x="10.937244"
     y="187.34946"
     id="text3056"
     sodipodi:linespacing="125%"><tspan
       sodipodi:role="line"
       x="10.937244"
       y="187.34946"
       id="tspan3060"
       style="font-size:12px">Ce fichier SVG sert de liste de référence pour comparer</tspan><tspan
       sodipodi:role="line"
       x="10.937244"
       y="202.34946"
       id="tspan3064"
       style="font-size:12px">les paths extraits du cadastre et identifier les noms de rues.</tspan><tspan
       sodipodi:role="line"
       x="10.937244"
       y="217.34946"
       id="tspan3066"
       style="font-size:12px">La valeur textuelle de chaque path est contenue dans son titre</tspan><tspan
       sodipodi:role="line"
       x="10.937244"
       y="232.34946"
       id="tspan3068"
       style="font-size:12px">(accessible en affichant ses propriétés)</tspan><tspan
       sodipodi:role="line"
       x="10.937244"
       y="247.34946"
       style="font-size:12px"
       id="tspan3070">Les paths sont inversés haut/bas à cause de la projection utilisée </tspan><tspan
       sodipodi:role="line"
       x="10.937244"
       y="262.34946"
       style="font-size:12px"
       id="tspan3072">par le cadastre (par exemple Lambert 9 Zones) qui inverse l'axe Y.</tspan></text>
</svg>